<?xml version="1.0" standalone="no"?>
<!DOCTYPE svg PUBLIC "-//W3C//DTD SVG 20010904//EN"
 "http://www.w3.org/TR/2001/REC-SVG-20010904/DTD/svg10.dtd">
<svg version="1.0" xmlns="http://www.w3.org/2000/svg"
 width="3098.000000pt" height="3098.000000pt" viewBox="0 0 3098.000000 3098.000000"
 preserveAspectRatio="xMidYMid meet">
<metadata>
Created by potrace 1.14, written by Peter Selinger 2001-2017
</metadata>
<g transform="translate(0.000000,3098.000000) scale(0.100000,-0.100000)"
fill="#000000" stroke="none">
<path d="M14845 30969 c-3167 -136 -6155 -1205 -8675 -3105 -1099 -828 -2127
-1846 -2964 -2934 -1454 -1893 -2443 -4066 -2906 -6390 -348 -1744 -395 -3522
-140 -5292 421 -2922 1690 -5684 3639 -7923 452 -519 1086 -1149 1599 -1588
2036 -1745 4441 -2919 7042 -3437 1744 -348 3522 -395 5292 -140 2922 421
5684 1690 7923 3639 519 452 1149 1086 1588 1599 2061 2405 3322 5324 3651
8452 63 595 81 952 80 1635 0 576 -6 766 -40 1205 -251 3284 -1540 6389 -3688
8887 -484 563 -1113 1193 -1667 1669 -2658 2283 -5958 3579 -9484 3724 -273
11 -981 11 -1250 -1z m1105 -8435 c2153 -194 3964 -1743 4484 -3835 66 -268
95 -430 138 -794 9 -75 12 -1219 15 -4619 3 -4136 2 -4524 -13 -4575 -69 -239
-329 -355 -546 -245 -140 71 -218 206 -218 380 0 39 -7 110 -15 157 -101 577
-582 987 -1159 988 -67 0 -151 -4 -187 -10 -434 -70 -802 -379 -938 -786 -37
-109 -61 -244 -61 -336 0 -179 -73 -315 -207 -387 -158 -83 -345 -52 -466 77
-77 83 -97 138 -108 298 -24 367 -174 671 -433 879 -225 181 -464 266 -751
265 -148 0 -255 -18 -383 -62 -182 -64 -338 -164 -468 -300 -95 -100 -154
-186 -214 -312 -66 -136 -97 -263 -114 -458 -16 -182 -36 -237 -117 -320 -149
-153 -395 -152 -549 2 -77 77 -101 140 -111 289 -16 221 -53 361 -140 530 -62
121 -126 205 -231 306 -170 163 -366 264 -601 309 -108 21 -317 21 -425 0
-419 -81 -762 -372 -900 -765 -40 -115 -60 -221 -71 -373 -8 -112 -12 -135
-39 -190 -120 -244 -432 -298 -622 -107 -62 61 -98 137 -111 229 -15 108 -6
8946 9 9091 37 344 72 556 139 825 317 1277 1118 2384 2235 3088 946 596 2058
862 3178 761z"/>
<path d="M13390 18629 c-574 -66 -1011 -530 -1046 -1110 -6 -92 -4 -115 15
-176 51 -169 185 -273 361 -281 97 -4 169 16 244 67 102 70 152 164 167 308
15 142 46 218 120 292 80 81 174 115 293 109 100 -5 174 -36 246 -104 75 -70
110 -148 120 -271 13 -144 47 -221 134 -301 137 -126 352 -137 501 -24 63 48
108 106 136 179 40 106 24 325 -38 510 -58 175 -142 311 -278 452 -192 199
-438 319 -720 351 -102 11 -148 11 -255 -1z"/>
<path d="M17323 18629 c-396 -46 -744 -285 -923 -635 -121 -236 -165 -551 -97
-697 36 -78 76 -127 139 -170 208 -141 511 -47 594 185 9 24 19 84 24 133 15
154 63 248 163 321 71 53 137 74 229 74 122 0 235 -57 310 -156 48 -62 67
-121 78 -231 17 -184 91 -294 245 -365 42 -19 67 -23 151 -23 96 0 103 2 176
38 87 43 142 98 185 186 27 54 28 61 27 206 -1 127 -5 165 -26 245 -132 492
-527 833 -1031 889 -107 12 -140 12 -244 0z"/>
<path d="M14600 14695 c-155 -44 -265 -167 -289 -324 -7 -41 -7 -98 -1 -165
40 -413 285 -771 656 -955 361 -179 802 -156 1152 61 179 111 374 337 451 523
70 167 109 372 98 508 -12 144 -99 266 -235 330 -60 28 -77 31 -157 31 -104 0
-164 -20 -244 -78 -94 -69 -141 -169 -159 -336 -20 -192 -138 -325 -319 -360
-165 -32 -342 60 -415 217 -22 46 -32 86 -38 156 -11 115 -39 193 -94 260 -44
54 -125 110 -186 128 -64 18 -162 20 -220 4z"/>
</g>
</svg>
