<?xml version="1.0" standalone="no"?>
<!DOCTYPE svg PUBLIC "-//W3C//DTD SVG 20010904//EN"
 "http://www.w3.org/TR/2001/REC-SVG-20010904/DTD/svg10.dtd">
<svg version="1.0" xmlns="http://www.w3.org/2000/svg"
 width="320.000000pt" height="320.000000pt" viewBox="0 0 320.000000 320.000000"
 preserveAspectRatio="xMidYMid meet">
<metadata>
Created by potrace 1.14, written by Peter Selinger 2001-2017
</metadata>
<g transform="translate(0.000000,320.000000) scale(0.100000,-0.100000)"
fill="#000000" stroke="none">
<path d="M1425 3194 c-287 -44 -494 -120 -703 -257 -362 -238 -600 -592 -693
-1027 -31 -142 -34 -457 -6 -595 75 -378 264 -703 547 -939 211 -177 441 -288
720 -347 142 -31 457 -34 595 -6 582 116 1049 518 1230 1061 65 194 79 287 79
516 0 175 -3 220 -23 310 -139 648 -614 1124 -1256 1260 -74 16 -146 22 -280
25 -99 2 -193 1 -210 -1z m159 -733 c3 -4 31 -11 63 -15 168 -19 299 -163 311
-340 l4 -72 -46 -36 c-73 -56 -130 -136 -159 -223 -5 -16 -13 -102 -16 -190
-6 -150 -7 -160 -26 -160 -14 0 -21 9 -26 34 -8 41 -34 67 -74 75 -40 8 -92
-24 -101 -61 -10 -49 -14 -55 -31 -51 -16 3 -19 21 -24 163 -6 160 -12 194
-54 276 -23 43 -109 133 -153 161 l-35 21 6 71 c8 94 59 198 125 256 56 50 85
66 154 84 64 18 75 19 82 7z m-580 -450 c3 -5 29 -10 58 -13 104 -8 222 -87
269 -180 44 -87 49 -133 49 -500 0 -191 -4 -348 -8 -348 -15 0 -32 24 -32 46
0 30 -54 74 -90 74 -39 0 -80 -37 -89 -80 -10 -49 -41 -49 -53 0 -24 98 -148
107 -178 13 -7 -21 -16 -42 -21 -47 -12 -13 -39 12 -39 36 0 31 -54 78 -89 78
-40 0 -81 -37 -90 -80 -5 -26 -12 -35 -26 -35 -19 0 -20 10 -23 365 -2 316 0
371 14 415 38 113 130 209 238 247 56 19 102 23 110 9z m1230 -11 c121 -20
213 -87 269 -195 l32 -60 3 -387 c3 -346 1 -387 -13 -382 -8 3 -15 17 -15 31
0 35 -51 83 -88 83 -39 0 -92 -44 -92 -75 0 -26 -27 -53 -39 -39 -5 5 -14 26
-21 47 -14 46 -57 72 -105 63 -39 -8 -63 -32 -71 -74 -4 -18 -10 -35 -14 -37
-17 -10 -40 8 -40 32 0 35 -51 83 -88 83 -39 0 -92 -44 -92 -75 0 -28 -26 -53
-41 -38 -6 6 -9 147 -7 389 l3 379 26 56 c15 31 44 75 65 98 63 71 177 126
239 115 17 -2 56 -9 89 -14z"/>
<path d="M1389 2151 c-41 -41 -38 -91 6 -91 17 0 26 8 34 31 12 36 30 34 49
-4 28 -57 82 -19 57 40 -26 61 -97 72 -146 24z"/>
<path d="M1697 2169 c-27 -16 -48 -69 -36 -91 12 -23 48 -23 56 0 17 46 46 50
57 6 5 -20 12 -25 34 -22 38 4 42 45 7 87 -21 24 -34 31 -63 31 -21 0 -45 -5
-55 -11z"/>
<path d="M1523 1883 c-20 -7 -15 -57 7 -86 53 -67 168 -23 158 61 -4 39 -42
42 -60 5 -17 -36 -39 -36 -56 0 -13 26 -24 31 -49 20z"/>
<path d="M823 1720 c-49 -29 -60 -102 -16 -108 15 -2 25 5 35 24 18 39 34 40
53 5 16 -32 22 -35 49 -25 18 7 21 46 5 76 -9 17 -64 48 -86 48 -4 0 -23 -9
-40 -20z"/>
<path d="M1124 1726 c-36 -16 -63 -69 -47 -95 16 -25 46 -19 61 12 16 34 44
32 52 -3 7 -32 44 -39 59 -11 20 37 -17 93 -69 105 -14 3 -39 0 -56 -8z"/>
<path d="M931 1422 c-12 -22 10 -77 38 -91 37 -20 81 -13 112 18 41 41 38 91
-6 91 -17 0 -26 -8 -34 -31 -12 -36 -30 -34 -49 4 -15 31 -47 36 -61 9z"/>
<path d="M2005 1731 c-46 -19 -73 -76 -52 -105 18 -24 55 -13 59 17 5 33 34
33 50 0 7 -16 21 -28 32 -28 54 0 38 87 -20 111 -38 16 -41 16 -69 5z"/>
<path d="M2293 1725 c-37 -16 -55 -45 -51 -83 5 -41 42 -42 63 -2 19 36 34 35
53 -3 14 -28 20 -31 46 -21 23 9 20 59 -6 87 -29 32 -65 39 -105 22z"/>
<path d="M2097 1433 c-15 -14 -6 -53 19 -82 20 -25 34 -31 64 -31 63 0 113 59
88 104 -12 21 -47 20 -55 -1 -17 -47 -46 -51 -57 -7 -5 17 -13 24 -30 24 -12
0 -26 -3 -29 -7z"/>
</g>
</svg>
