<svg width="4368" height="3481" viewBox="0 0 4368 3481" fill="none" xmlns="http://www.w3.org/2000/svg">
<g clip-path="url(#clip0_1919_128)">
<path d="M2183.85 25.6116L2183.82 25.6116L2183.79 25.6116C1933.68 25.8868 1693.9 125.363 1517.02 302.207L1517.02 302.209C1340.17 479.073 1240.7 718.853 1240.42 968.984L1240.42 968.998V969.012V2316C1240.42 2390.55 1280.19 2459.44 1344.76 2496.72L1344.76 2496.72C1409.33 2533.99 1488.87 2533.99 1553.44 2496.72L1553.44 2496.72C1618.01 2459.44 1657.78 2390.55 1657.78 2316C1657.78 2303.07 1664.68 2291.1 1675.89 2284.62C1687.1 2278.15 1700.91 2278.15 1712.11 2284.62C1723.33 2291.1 1730.24 2303.07 1730.24 2316C1730.24 2390.55 1770 2459.44 1834.58 2496.72L1834.58 2496.72C1899.15 2533.99 1978.68 2533.99 2043.25 2496.72L2043.25 2496.72C2107.83 2459.44 2147.6 2390.55 2147.6 2316C2147.6 2303.07 2154.5 2291.1 2165.71 2284.62C2176.91 2278.15 2190.72 2278.15 2201.93 2284.62C2213.14 2291.1 2220.05 2303.07 2220.05 2316C2220.05 2390.55 2259.82 2459.44 2324.39 2496.72L2324.39 2496.72C2388.96 2533.99 2468.5 2533.99 2533.07 2496.72L2533.07 2496.72C2597.64 2459.44 2637.41 2390.55 2637.41 2316C2637.41 2303.07 2644.31 2291.1 2655.52 2284.62C2666.73 2278.15 2680.54 2278.15 2691.74 2284.62C2702.96 2291.1 2709.86 2303.07 2709.86 2316C2709.86 2390.55 2749.63 2459.44 2814.2 2496.72L2814.2 2496.72C2878.77 2533.99 2958.31 2533.99 3022.88 2496.72L3022.88 2496.72C3087.45 2459.44 3127.22 2390.55 3127.22 2316V969.012V968.998V968.984C3126.95 718.872 3027.47 479.085 2850.63 302.21L2850.62 302.208C2673.76 125.355 2433.98 25.8883 2183.85 25.6116Z" fill="white" stroke="white" stroke-width="50"/>
<path d="M2979.76 2409.52L2979.77 969.012C2979.77 757.902 2895.91 555.46 2746.64 406.192C2597.37 256.924 2394.93 173.063 2183.82 173.063" stroke="#CBD5E1" stroke-width="109.11" stroke-linecap="round"/>
<path d="M1908.05 2369.46L1908.28 2369.06L1908.05 2369.46C1927.15 2380.48 1950.68 2380.48 1969.78 2369.46L1969.55 2369.07L1969.78 2369.46C1988.88 2358.43 2000.64 2338.05 2000.64 2316C2000.64 2250.56 2035.55 2190.08 2092.23 2157.36C2148.91 2124.64 2218.73 2124.64 2275.41 2157.36C2332.09 2190.08 2367 2250.56 2367 2316C2367 2338.05 2378.77 2358.42 2397.87 2369.46C2416.96 2380.48 2440.5 2380.48 2459.59 2369.46C2478.69 2358.43 2490.46 2338.05 2490.46 2316C2490.46 2250.56 2525.36 2190.08 2582.05 2157.36C2638.73 2124.64 2708.54 2124.64 2765.23 2157.36C2821.91 2190.08 2856.82 2250.56 2856.82 2316C2856.82 2338.05 2868.58 2358.42 2887.68 2369.46C2906.77 2380.48 2930.31 2380.48 2949.41 2369.46C2968.5 2358.43 2980.27 2338.05 2980.27 2316L2980.27 969.012C2980.27 757.77 2896.36 555.2 2747 405.838C2597.63 256.476 2395.07 172.562 2183.82 172.562C1972.58 172.562 1770.01 256.476 1620.65 405.838C1471.29 555.202 1387.38 757.782 1387.38 969.012V2316C1387.38 2338.05 1399.14 2358.42 1418.24 2369.46L1418.49 2369.03L1418.24 2369.46C1437.33 2380.48 1460.87 2380.48 1479.97 2369.46L1479.72 2369.04L1479.97 2369.46C1499.06 2358.43 1510.83 2338.05 1510.83 2316C1510.83 2250.56 1545.74 2190.08 1602.42 2157.36C1659.1 2124.64 1728.92 2124.64 1785.6 2157.36C1842.28 2190.08 1877.19 2250.56 1877.19 2316C1877.19 2338.05 1888.96 2358.42 1908.05 2369.46ZM1535.05 320.24C1707.15 148.169 1940.46 51.3795 2183.82 51.1116C2427.2 51.381 2660.51 148.162 2832.59 320.24C3004.66 492.34 3101.45 725.654 3101.72 969.012V2316C3101.72 2381.44 3066.81 2441.92 3010.13 2474.64C2953.45 2507.36 2883.63 2507.36 2826.95 2474.64C2770.27 2441.92 2735.36 2381.44 2735.36 2316C2735.36 2293.95 2723.6 2273.57 2704.5 2262.54C2685.4 2251.51 2661.87 2251.51 2642.77 2262.54C2623.68 2273.57 2611.91 2293.95 2611.91 2316C2611.91 2381.44 2577 2441.92 2520.32 2474.64C2463.64 2507.36 2393.82 2507.36 2337.14 2474.64C2280.46 2441.92 2245.55 2381.44 2245.55 2316C2245.55 2293.95 2233.78 2273.57 2214.69 2262.54C2195.59 2251.51 2172.06 2251.51 2152.96 2262.54C2133.86 2273.57 2122.1 2293.95 2122.1 2316C2122.1 2381.44 2087.19 2441.92 2030.51 2474.64C1973.82 2507.36 1904.01 2507.36 1847.33 2474.64C1790.64 2441.92 1755.74 2381.44 1755.74 2316C1755.74 2293.95 1743.97 2273.57 1724.87 2262.54C1705.78 2251.51 1682.24 2251.51 1663.15 2262.54C1644.05 2273.57 1632.28 2293.95 1632.28 2316C1632.28 2381.44 1597.37 2441.92 1540.69 2474.64C1484.01 2507.36 1414.19 2507.36 1357.51 2474.64C1300.83 2441.92 1265.92 2381.44 1265.92 2316L1265.92 969.012C1266.19 725.634 1362.97 492.328 1535.05 320.24Z" fill="#111827" stroke="white"/>
<path d="M2061.37 969.011C2061.37 903.393 2026.37 842.75 1969.53 809.937C1912.7 777.132 1842.69 777.132 1785.85 809.937C1729.02 842.75 1694.01 903.393 1694.01 969.011C1694.01 990.881 1705.68 1011.1 1724.63 1022.04C1743.57 1032.97 1766.91 1032.97 1785.85 1022.04C1804.79 1011.09 1816.47 990.879 1816.47 969.011C1816.47 947.144 1828.14 926.926 1847.08 915.984C1866.02 905.049 1889.36 905.049 1908.31 915.984C1927.25 926.928 1938.92 947.144 1938.92 969.011C1938.92 990.879 1950.59 1011.1 1969.53 1022.04C1988.47 1032.97 2011.82 1032.97 2030.76 1022.04C2049.7 1011.09 2061.37 990.879 2061.37 969.011Z" fill="#111827"/>
<path d="M2489.96 785.332C2441.26 785.389 2394.57 804.752 2360.14 839.192C2325.7 873.623 2306.33 920.317 2306.28 969.012C2306.28 990.881 2317.95 1011.1 2336.89 1022.04C2355.83 1032.97 2379.18 1032.97 2398.12 1022.04C2417.06 1011.09 2428.73 990.88 2428.73 969.012C2428.73 947.144 2440.4 926.927 2459.34 915.985C2478.29 905.05 2501.63 905.05 2520.57 915.985C2539.51 926.929 2551.18 947.144 2551.18 969.012C2551.18 990.88 2562.86 1011.1 2581.8 1022.04C2600.74 1032.97 2624.08 1032.97 2643.02 1022.04C2661.97 1011.09 2673.64 990.88 2673.64 969.012C2673.58 920.317 2654.22 873.623 2619.78 839.192C2585.35 804.753 2538.65 785.388 2489.96 785.332Z" fill="#111827"/>
<path d="M2306.28 1397.6C2290.03 1397.59 2274.46 1404.04 2262.97 1415.52C2251.49 1427.01 2245.04 1442.58 2245.05 1458.83C2245.05 1480.7 2233.38 1500.91 2214.44 1511.85C2195.5 1522.79 2172.15 1522.79 2153.21 1511.85C2134.27 1500.91 2122.6 1480.7 2122.6 1458.83C2122.6 1436.96 2110.93 1416.74 2091.98 1405.8C2073.04 1394.87 2049.7 1394.87 2030.76 1405.8C2011.82 1416.74 2000.14 1436.96 2000.14 1458.83C2000.14 1524.45 2035.15 1585.09 2091.98 1617.9C2148.82 1650.71 2218.83 1650.71 2275.66 1617.9C2332.5 1585.09 2367.5 1524.45 2367.5 1458.83C2367.51 1442.58 2361.07 1427.01 2349.59 1415.52C2338.1 1404.04 2322.52 1397.59 2306.28 1397.6Z" fill="#111827"/>
</g>
<g clip-path="url(#clip1_1919_128)">
<path d="M3399 956.16L3398.97 956.16L3398.95 956.16C3148.83 956.435 2909.05 1055.91 2732.17 1232.76L2732.17 1232.76C2555.32 1409.62 2455.85 1649.4 2455.57 1899.53L2455.57 1899.55V1899.56V3246.55C2455.57 3321.09 2495.34 3389.99 2559.91 3427.27L2559.92 3427.27C2624.49 3464.54 2704.02 3464.54 2768.59 3427.27L2768.59 3427.27C2833.17 3389.99 2872.93 3321.09 2872.93 3246.55C2872.93 3233.61 2879.84 3221.65 2891.05 3215.17C2902.25 3208.7 2916.06 3208.7 2927.27 3215.17C2938.48 3221.65 2945.39 3233.61 2945.39 3246.55C2945.39 3321.09 2985.16 3389.99 3049.73 3427.27L3049.73 3427.27C3114.3 3464.54 3193.84 3464.54 3258.41 3427.27L3258.41 3427.27C3322.98 3389.99 3362.75 3321.09 3362.75 3246.55C3362.75 3233.61 3369.65 3221.65 3380.86 3215.17C3392.06 3208.7 3405.88 3208.7 3417.08 3215.17C3428.3 3221.65 3435.2 3233.61 3435.2 3246.55C3435.2 3321.09 3474.97 3389.99 3539.54 3427.27L3539.54 3427.27C3604.11 3464.54 3683.65 3464.54 3748.22 3427.27L3748.22 3427.27C3812.79 3389.99 3852.56 3321.09 3852.56 3246.55C3852.56 3233.61 3859.46 3221.65 3870.67 3215.17C3881.88 3208.7 3895.69 3208.7 3906.89 3215.17C3918.11 3221.65 3925.01 3233.61 3925.01 3246.55C3925.01 3321.09 3964.78 3389.99 4029.35 3427.27L4029.36 3427.27C4093.93 3464.54 4173.46 3464.54 4238.03 3427.27L4238.03 3427.27C4302.61 3389.99 4342.37 3321.09 4342.37 3246.55V1899.56V1899.55V1899.53C4342.1 1649.42 4242.62 1409.63 4065.78 1232.76L4065.78 1232.76C3888.91 1055.9 3649.13 956.436 3399 956.16Z" fill="white" stroke="white" stroke-width="50"/>
<path d="M4194.92 3340.07L4194.92 1899.56C4194.92 1688.45 4111.06 1486.01 3961.79 1336.74C3812.52 1187.47 3610.08 1103.61 3398.97 1103.61" stroke="#CBD5E1" stroke-width="109.11" stroke-linecap="round"/>
<path d="M3123.2 3300.01L3123.43 3299.61L3123.2 3300.01C3142.3 3311.03 3165.83 3311.03 3184.93 3300.01L3184.71 3299.62L3184.93 3300.01C3204.03 3288.98 3215.79 3268.59 3215.79 3246.55C3215.79 3181.11 3250.7 3120.63 3307.38 3087.91C3364.07 3055.19 3433.88 3055.19 3490.56 3087.91C3547.24 3120.63 3582.15 3181.11 3582.15 3246.55C3582.15 3268.59 3593.92 3288.97 3613.02 3300.01C3632.11 3311.03 3655.65 3311.03 3674.74 3300.01C3693.84 3288.98 3705.61 3268.59 3705.61 3246.55C3705.61 3181.11 3740.52 3120.63 3797.2 3087.91C3853.88 3055.19 3923.7 3055.19 3980.38 3087.91C4037.06 3120.63 4071.97 3181.11 4071.97 3246.55C4071.97 3268.59 4083.73 3288.97 4102.83 3300.01C4121.93 3311.03 4145.46 3311.03 4164.56 3300.01C4183.65 3288.98 4195.42 3268.59 4195.42 3246.55L4195.43 1899.56C4195.43 1688.32 4111.51 1485.75 3962.15 1336.39C3812.79 1187.02 3610.22 1103.11 3398.98 1103.11C3187.73 1103.11 2985.17 1187.02 2835.8 1336.39C2686.44 1485.75 2602.53 1688.33 2602.53 1899.56V3246.55C2602.53 3268.59 2614.29 3288.97 2633.39 3300.01L2633.64 3299.57L2633.39 3300.01C2652.49 3311.03 2676.02 3311.03 2695.12 3300.01L2694.87 3299.59L2695.12 3300.01C2714.21 3288.98 2725.98 3268.59 2725.98 3246.55C2725.98 3181.11 2760.89 3120.63 2817.57 3087.91C2874.25 3055.19 2944.07 3055.19 3000.75 3087.91C3057.43 3120.63 3092.34 3181.11 3092.34 3246.55C3092.34 3268.59 3104.11 3288.97 3123.2 3300.01ZM2750.2 1250.79C2922.3 1078.72 3155.62 981.928 3398.97 981.66C3642.35 981.929 3875.66 1078.71 4047.75 1250.79C4219.82 1422.89 4316.61 1656.2 4316.87 1899.56V3246.55C4316.87 3311.99 4281.97 3372.46 4225.28 3405.19C4168.6 3437.9 4098.79 3437.9 4042.1 3405.19C3985.42 3372.46 3950.51 3311.99 3950.51 3246.55C3950.51 3224.5 3938.75 3204.12 3919.65 3193.09C3900.56 3182.06 3877.02 3182.06 3857.92 3193.09C3838.83 3204.12 3827.06 3224.5 3827.06 3246.55C3827.06 3311.99 3792.15 3372.46 3735.47 3405.19C3678.79 3437.9 3608.97 3437.9 3552.29 3405.19C3495.61 3372.46 3460.7 3311.99 3460.7 3246.55C3460.7 3224.5 3448.93 3204.12 3429.84 3193.09C3410.74 3182.06 3387.21 3182.06 3368.11 3193.09C3349.01 3204.12 3337.25 3224.5 3337.25 3246.55C3337.25 3311.99 3302.34 3372.46 3245.66 3405.19C3188.98 3437.9 3119.16 3437.9 3062.48 3405.19C3005.8 3372.46 2970.89 3311.99 2970.89 3246.55C2970.89 3224.5 2959.12 3204.12 2940.02 3193.09C2920.93 3182.06 2897.39 3182.06 2878.3 3193.09C2859.2 3204.12 2847.43 3224.5 2847.43 3246.55C2847.43 3311.99 2812.52 3372.46 2755.84 3405.19C2699.16 3437.9 2629.35 3437.9 2572.66 3405.19C2515.98 3372.46 2481.07 3311.99 2481.07 3246.55L2481.07 1899.56C2481.34 1656.18 2578.12 1422.88 2750.2 1250.79Z" fill="#111827" stroke="white"/>
<path d="M3276.53 1899.56C3276.53 1833.94 3241.52 1773.3 3184.69 1740.48C3127.85 1707.68 3057.84 1707.68 3001.01 1740.48C2944.17 1773.3 2909.17 1833.94 2909.17 1899.56C2909.17 1921.43 2920.84 1941.64 2939.78 1952.59C2958.72 1963.52 2982.07 1963.52 3001.01 1952.59C3019.95 1941.64 3031.62 1921.43 3031.62 1899.56C3031.62 1877.69 3043.29 1857.47 3062.23 1846.53C3081.18 1835.6 3104.52 1835.6 3123.46 1846.53C3142.4 1857.48 3154.07 1877.69 3154.07 1899.56C3154.07 1921.43 3165.75 1941.64 3184.69 1952.59C3203.63 1963.52 3226.97 1963.52 3245.91 1952.59C3264.86 1941.64 3276.53 1921.43 3276.53 1899.56Z" fill="#111827"/>
<path d="M3705.11 1715.88C3656.41 1715.94 3609.72 1735.3 3575.29 1769.74C3540.85 1804.17 3521.49 1850.86 3521.43 1899.56C3521.43 1921.43 3533.1 1941.64 3552.04 1952.59C3570.99 1963.52 3594.33 1963.52 3613.27 1952.59C3632.21 1941.64 3643.88 1921.43 3643.88 1899.56C3643.88 1877.69 3655.55 1857.47 3674.5 1846.53C3693.44 1835.6 3716.78 1835.6 3735.72 1846.53C3754.67 1857.48 3766.34 1877.69 3766.34 1899.56C3766.34 1921.43 3778.01 1941.64 3796.95 1952.59C3815.89 1963.52 3839.24 1963.52 3858.18 1952.59C3877.12 1941.64 3888.79 1921.43 3888.79 1899.56C3888.73 1850.86 3869.37 1804.17 3834.93 1769.74C3800.5 1735.3 3753.8 1715.94 3705.11 1715.88Z" fill="#111827"/>
<path d="M3521.43 2328.15C3505.19 2328.14 3489.61 2334.58 3478.12 2346.06C3466.64 2357.55 3460.19 2373.13 3460.2 2389.37C3460.2 2411.24 3448.53 2431.46 3429.59 2442.4C3410.65 2453.34 3387.3 2453.34 3368.36 2442.4C3349.42 2431.46 3337.75 2411.24 3337.75 2389.37C3337.75 2367.51 3326.08 2347.29 3307.14 2336.35C3288.19 2325.41 3264.85 2325.41 3245.91 2336.35C3226.97 2347.29 3215.3 2367.51 3215.3 2389.37C3215.3 2454.99 3250.3 2515.64 3307.14 2548.45C3363.97 2581.25 3433.98 2581.25 3490.82 2548.45C3547.65 2515.64 3582.66 2454.99 3582.66 2389.37C3582.67 2373.13 3576.22 2357.56 3564.74 2346.06C3553.25 2334.58 3537.68 2328.14 3521.43 2328.15Z" fill="#111827"/>
</g>
<g clip-path="url(#clip2_1919_128)">
<path d="M968.697 956.16L968.67 956.16L968.642 956.16C718.53 956.435 478.743 1055.91 301.868 1232.76L301.866 1232.76C125.013 1409.62 25.5463 1649.4 25.2695 1899.53L25.2695 1899.55V1899.56V3246.55C25.2695 3321.09 65.0378 3389.99 129.61 3427.27L129.612 3427.27C194.181 3464.54 273.718 3464.54 338.287 3427.27L338.289 3427.27C402.861 3389.99 442.63 3321.09 442.63 3246.55C442.63 3233.61 449.532 3221.65 460.742 3215.17C471.947 3208.7 485.758 3208.7 496.963 3215.17C508.178 3221.65 515.083 3233.61 515.083 3246.55C515.083 3321.09 554.851 3389.99 619.423 3427.27L619.425 3427.27C683.995 3464.54 763.531 3464.54 828.101 3427.27L828.103 3427.27C892.675 3389.99 932.443 3321.09 932.443 3246.55C932.443 3233.61 939.345 3221.65 950.555 3215.17C961.76 3208.7 975.571 3208.7 986.776 3215.17C997.992 3221.65 1004.9 3233.61 1004.9 3246.55C1004.9 3321.09 1044.66 3389.99 1109.24 3427.27L1109.24 3427.27C1173.81 3464.54 1253.34 3464.54 1317.91 3427.27L1317.92 3427.27C1382.49 3389.99 1422.26 3321.09 1422.26 3246.55C1422.26 3233.61 1429.16 3221.65 1440.37 3215.17C1451.57 3208.7 1465.38 3208.7 1476.59 3215.17C1487.81 3221.65 1494.71 3233.61 1494.71 3246.55C1494.71 3321.09 1534.48 3389.99 1599.05 3427.27L1599.05 3427.27C1663.62 3464.54 1743.16 3464.54 1807.73 3427.27L1807.73 3427.27C1872.3 3389.99 1912.07 3321.09 1912.07 3246.55V1899.56V1899.55V1899.53C1911.79 1649.42 1812.32 1409.63 1635.47 1232.76L1635.47 1232.76C1458.61 1055.9 1218.83 956.436 968.697 956.16Z" fill="white" stroke="white" stroke-width="50"/>
<path d="M1764.61 3340.07L1764.62 1899.56C1764.62 1688.45 1680.76 1486.01 1531.49 1336.74C1382.22 1187.47 1179.78 1103.61 968.668 1103.61" stroke="#CBD5E1" stroke-width="109.11" stroke-linecap="round"/>
<path d="M692.899 3300.01L693.128 3299.61L692.9 3300.01C711.995 3311.03 735.529 3311.03 754.626 3300.01L754.402 3299.62L754.626 3300.01C773.723 3288.98 785.49 3268.59 785.49 3246.55C785.49 3181.11 820.399 3120.63 877.08 3087.91C933.76 3055.19 1003.58 3055.19 1060.26 3087.91C1116.94 3120.63 1151.85 3181.11 1151.85 3246.55C1151.85 3268.59 1163.62 3288.97 1182.71 3300.01C1201.81 3311.03 1225.34 3311.03 1244.44 3300.01C1263.54 3288.98 1275.3 3268.59 1275.3 3246.55C1275.3 3181.11 1310.21 3120.63 1366.89 3087.91C1423.57 3055.19 1493.39 3055.19 1550.07 3087.91C1606.75 3120.63 1641.66 3181.11 1641.66 3246.55C1641.66 3268.59 1653.43 3288.97 1672.53 3300.01C1691.62 3311.03 1715.16 3311.03 1734.25 3300.01C1753.35 3288.98 1765.12 3268.59 1765.12 3246.55L1765.12 1899.56C1765.12 1688.32 1681.21 1485.75 1531.85 1336.39C1382.48 1187.02 1179.91 1103.11 968.672 1103.11C757.43 1103.11 554.86 1187.02 405.498 1336.39C256.137 1485.75 172.223 1688.33 172.223 1899.56V3246.55C172.223 3268.59 183.989 3288.97 203.086 3300.01L203.336 3299.57L203.086 3300.01C222.182 3311.03 245.716 3311.03 264.813 3300.01L264.57 3299.59L264.813 3300.01C283.91 3288.98 295.676 3268.59 295.676 3246.55C295.676 3181.11 330.585 3120.63 387.266 3087.91C443.947 3055.19 513.765 3055.19 570.446 3087.91C627.127 3120.63 662.036 3181.11 662.036 3246.55C662.036 3268.59 673.803 3288.97 692.899 3300.01ZM319.898 1250.79C491.998 1078.72 725.311 981.928 968.67 981.66C1212.05 981.929 1445.35 1078.71 1617.44 1250.79C1789.51 1422.89 1886.3 1656.2 1886.57 1899.56V3246.55C1886.57 3311.99 1851.66 3372.46 1794.98 3405.19C1738.3 3437.9 1668.48 3437.9 1611.8 3405.19C1555.12 3372.46 1520.21 3311.99 1520.21 3246.55C1520.21 3224.5 1508.44 3204.12 1489.35 3193.09C1470.25 3182.06 1446.72 3182.06 1427.62 3193.09C1408.52 3204.12 1396.76 3224.5 1396.76 3246.55C1396.76 3311.99 1361.85 3372.46 1305.17 3405.19C1248.49 3437.9 1178.67 3437.9 1121.99 3405.19C1065.31 3372.46 1030.4 3311.99 1030.4 3246.55C1030.4 3224.5 1018.63 3204.12 999.533 3193.09C980.437 3182.06 956.903 3182.06 937.806 3193.09C918.709 3204.12 906.943 3224.5 906.943 3246.55C906.943 3311.99 872.034 3372.46 815.353 3405.19C758.672 3437.9 688.854 3437.9 632.173 3405.19C575.492 3372.46 540.583 3311.99 540.583 3246.55C540.583 3224.5 528.816 3204.12 509.72 3193.09C490.624 3182.06 467.09 3182.06 447.993 3193.09C428.896 3204.12 417.13 3224.5 417.13 3246.55C417.13 3311.99 382.22 3372.46 325.54 3405.19C268.859 3437.9 199.04 3437.9 142.36 3405.19C85.6788 3372.46 50.7695 3311.99 50.7695 3246.55L50.7695 1899.56C51.0388 1656.18 147.82 1422.88 319.898 1250.79Z" fill="#111827" stroke="white"/>
<path d="M846.219 1899.56C846.219 1833.94 811.215 1773.3 754.379 1740.48C697.544 1707.68 627.535 1707.68 570.699 1740.48C513.864 1773.3 478.859 1833.94 478.859 1899.56C478.859 1921.43 490.531 1941.64 509.473 1952.59C528.415 1963.52 551.758 1963.52 570.699 1952.59C589.641 1941.64 601.313 1921.43 601.313 1899.56C601.313 1877.69 612.984 1857.47 631.926 1846.53C650.868 1835.6 674.212 1835.6 693.153 1846.53C712.095 1857.48 723.766 1877.69 723.766 1899.56C723.766 1921.43 735.437 1941.64 754.379 1952.59C773.321 1963.52 796.665 1963.52 815.606 1952.59C834.548 1941.64 846.219 1921.43 846.219 1899.56Z" fill="#111827"/>
<path d="M1274.8 1715.88C1226.11 1715.94 1179.42 1735.3 1144.98 1769.74C1110.55 1804.17 1091.18 1850.86 1091.12 1899.56C1091.12 1921.43 1102.8 1941.64 1121.74 1952.59C1140.68 1963.52 1164.02 1963.52 1182.96 1952.59C1201.91 1941.64 1213.58 1921.43 1213.58 1899.56C1213.58 1877.69 1225.25 1857.47 1244.19 1846.53C1263.13 1835.6 1286.48 1835.6 1305.42 1846.53C1324.36 1857.48 1336.03 1877.69 1336.03 1899.56C1336.03 1921.43 1347.7 1941.64 1366.64 1952.59C1385.59 1963.52 1408.93 1963.52 1427.87 1952.59C1446.81 1941.64 1458.48 1921.43 1458.48 1899.56C1458.43 1850.86 1439.06 1804.17 1404.63 1769.74C1370.19 1735.3 1323.5 1715.94 1274.8 1715.88Z" fill="#111827"/>
<path d="M1091.13 2328.15C1074.88 2328.14 1059.31 2334.58 1047.82 2346.06C1036.34 2357.55 1029.89 2373.13 1029.9 2389.37C1029.9 2411.24 1018.23 2431.46 999.286 2442.4C980.343 2453.34 957 2453.34 938.059 2442.4C919.117 2431.46 907.446 2411.24 907.446 2389.37C907.446 2367.51 895.774 2347.29 876.832 2336.35C857.89 2325.41 834.547 2325.41 815.606 2336.35C796.663 2347.29 784.992 2367.51 784.992 2389.37C784.992 2454.99 819.997 2515.64 876.832 2548.45C933.668 2581.25 1003.68 2581.25 1060.51 2548.45C1117.35 2515.64 1152.35 2454.99 1152.35 2389.37C1152.36 2373.13 1145.91 2357.56 1134.43 2346.06C1122.94 2334.58 1107.37 2328.14 1091.13 2328.15Z" fill="#111827"/>
</g>
<defs>
<clipPath id="clip0_1919_128">
<rect width="1938" height="2550" fill="white" transform="translate(1215)"/>
</clipPath>
<clipPath id="clip1_1919_128">
<rect width="1938" height="2550" fill="white" transform="translate(2430 931)"/>
</clipPath>
<clipPath id="clip2_1919_128">
<rect width="1938" height="2550" fill="white" transform="translate(0 931)"/>
</clipPath>
</defs>
</svg>
