<svg width="4368" height="3481" viewBox="0 0 4368 3481" fill="none" xmlns="http://www.w3.org/2000/svg">
<g clip-path="url(#clip0_1_2)">
<mask id="mask0_1_2" style="mask-type:luminance" maskUnits="userSpaceOnUse" x="1519" y="106" width="2565" height="3376">
<path d="M4083.64 106.474H1519V3481H4083.64V106.474Z" fill="white"/>
</mask>
<g mask="url(#mask0_1_2)">
<path d="M2800.92 139.769H2800.88H2800.85C2469.86 140.133 2152.54 271.772 1918.48 505.806H1918.47C1684.44 739.852 1552.81 1057.16 1552.44 1388.17V1388.2V1388.21V3170.74C1552.44 3269.38 1605.07 3360.56 1690.52 3409.9H1690.52C1775.97 3459.22 1881.22 3459.22 1966.67 3409.9H1966.67C2052.12 3360.56 2104.75 3269.38 2104.75 3170.74C2104.75 3153.62 2113.89 3137.79 2128.72 3129.22C2143.55 3120.65 2161.82 3120.65 2176.65 3129.22C2191.49 3137.79 2200.63 3153.62 2200.63 3170.74C2200.63 3269.38 2253.26 3360.56 2338.71 3409.9H2338.71C2424.16 3459.22 2529.41 3459.22 2614.86 3409.9H2614.86C2700.32 3360.56 2752.94 3269.38 2752.94 3170.74C2752.94 3153.62 2762.08 3137.79 2776.91 3129.22C2791.74 3120.65 2810.02 3120.65 2824.84 3129.22C2839.69 3137.79 2848.83 3153.62 2848.83 3170.74C2848.83 3269.38 2901.44 3360.56 2986.91 3409.9C3072.35 3459.22 3177.6 3459.22 3263.05 3409.9H3263.06C3348.51 3360.56 3401.14 3269.38 3401.14 3170.74C3401.14 3153.62 3410.27 3137.79 3425.1 3129.22C3439.93 3120.65 3458.2 3120.65 3473.04 3129.22C3487.88 3137.79 3497.01 3153.62 3497.01 3170.74C3497.01 3269.38 3549.64 3360.56 3635.09 3409.9C3720.54 3459.22 3825.8 3459.22 3911.25 3409.9C3996.7 3360.56 4049.33 3269.38 4049.33 3170.74V1388.21V1388.2V1388.17C4048.95 1057.19 3917.32 739.866 3683.29 505.806C3449.24 271.759 3131.93 140.134 2800.92 139.769Z" fill="white" stroke="white" stroke-width="50"/>
<path d="M3854.19 3294.5L3854.2 1388.21C3854.2 1108.84 3743.22 840.942 3545.69 643.407C3348.15 445.871 3080.25 334.896 2800.88 334.896" stroke="#CBD5E1" stroke-width="109.11" stroke-linecap="round"/>
<path d="M2435.94 3241.49C2461.21 3256.07 2492.36 3256.07 2517.63 3241.49C2542.9 3226.89 2558.47 3199.91 2558.47 3170.74C2558.47 3084.14 2604.67 3004.11 2679.68 2960.81C2754.69 2917.51 2847.08 2917.51 2922.09 2960.81C2997.1 3004.11 3043.29 3084.14 3043.29 3170.74C3043.29 3199.91 3058.87 3226.88 3084.13 3241.49C3109.41 3256.07 3140.55 3256.07 3165.82 3241.49C3191.1 3226.89 3206.66 3199.91 3206.66 3170.74C3206.66 3084.14 3252.86 3004.11 3327.86 2960.81C3402.87 2917.51 3495.27 2917.51 3570.27 2960.81C3645.28 3004.11 3691.48 3084.14 3691.48 3170.74C3691.48 3199.91 3707.06 3226.88 3732.33 3241.49C3757.59 3256.07 3788.75 3256.07 3814.01 3241.49C3839.28 3226.89 3854.86 3199.91 3854.86 3170.74V1388.21C3854.86 1108.67 3743.82 840.599 3546.16 642.944C3348.5 445.276 3080.43 334.234 2800.89 334.234C2521.34 334.234 2253.27 445.276 2055.61 642.944C1857.96 840.599 1746.91 1108.68 1746.91 1388.21V3170.74C1746.91 3199.91 1762.48 3226.88 1787.75 3241.49C1813.02 3256.07 1844.17 3256.07 1869.44 3241.49C1894.71 3226.89 1910.28 3199.91 1910.28 3170.74C1910.28 3084.14 1956.48 3004.11 2031.49 2960.81C2106.49 2917.51 2198.89 2917.51 2273.9 2960.81C2348.9 3004.11 2395.1 3084.14 2395.1 3170.74C2395.1 3199.91 2410.67 3226.88 2435.94 3241.49ZM1942.33 529.666C2170.08 301.958 2478.84 173.869 2800.88 173.514C3122.96 173.87 3431.69 301.945 3659.43 529.666C3887.14 757.413 4015.22 1066.16 4015.58 1388.21V3170.74C4015.58 3257.34 3969.38 3337.36 3894.38 3380.68C3819.37 3423.96 3726.97 3423.96 3651.97 3380.68C3576.96 3337.36 3530.76 3257.34 3530.76 3170.74C3530.76 3141.56 3515.18 3114.59 3489.92 3100C3464.65 3085.4 3433.51 3085.4 3408.23 3100C3382.96 3114.59 3367.39 3141.56 3367.39 3170.74C3367.39 3257.34 3321.2 3337.36 3246.19 3380.68C3171.18 3423.96 3078.79 3423.96 3003.78 3380.68C2928.77 3337.36 2882.57 3257.34 2882.57 3170.74C2882.57 3141.56 2867 3114.59 2841.73 3100C2816.46 3085.4 2785.31 3085.4 2760.04 3100C2734.77 3114.59 2719.2 3141.56 2719.2 3170.74C2719.2 3257.34 2673 3337.36 2597.99 3380.68C2522.98 3423.96 2430.59 3423.96 2355.58 3380.68C2280.57 3337.36 2234.38 3257.34 2234.38 3170.74C2234.38 3141.56 2218.81 3114.59 2193.53 3100C2168.26 3085.4 2137.12 3085.4 2111.85 3100C2086.58 3114.59 2071.01 3141.56 2071.01 3170.74C2071.01 3257.34 2024.81 3337.36 1949.8 3380.68C1874.79 3423.96 1782.4 3423.96 1707.39 3380.68C1632.38 3337.36 1586.19 3257.34 1586.19 3170.74V1388.21C1586.54 1066.14 1714.62 757.4 1942.33 529.666Z" fill="#111827"/>
<path d="M2435.94 3241.49L2436.25 3240.96M2435.94 3241.49C2461.21 3256.07 2492.36 3256.07 2517.63 3241.49M2435.94 3241.49C2410.67 3226.88 2395.1 3199.91 2395.1 3170.74C2395.1 3084.14 2348.9 3004.11 2273.9 2960.81C2198.89 2917.51 2106.49 2917.51 2031.49 2960.81C1956.48 3004.11 1910.28 3084.14 1910.28 3170.74C1910.28 3199.91 1894.71 3226.89 1869.44 3241.49M2517.63 3241.49L2517.33 3240.97M2517.63 3241.49C2542.9 3226.89 2558.47 3199.91 2558.47 3170.74C2558.47 3084.14 2604.67 3004.11 2679.68 2960.81C2754.69 2917.51 2847.08 2917.51 2922.09 2960.81C2997.1 3004.11 3043.29 3084.14 3043.29 3170.74C3043.29 3199.91 3058.87 3226.88 3084.13 3241.49C3109.41 3256.07 3140.55 3256.07 3165.82 3241.49C3191.1 3226.89 3206.66 3199.91 3206.66 3170.74C3206.66 3084.14 3252.86 3004.11 3327.86 2960.81C3402.87 2917.51 3495.27 2917.51 3570.27 2960.81C3645.28 3004.11 3691.48 3084.14 3691.48 3170.74C3691.48 3199.91 3707.06 3226.88 3732.33 3241.49C3757.59 3256.07 3788.75 3256.07 3814.01 3241.49C3839.28 3226.89 3854.86 3199.91 3854.86 3170.74V1388.21C3854.86 1108.67 3743.82 840.599 3546.16 642.944C3348.5 445.276 3080.43 334.234 2800.89 334.234C2521.34 334.234 2253.27 445.276 2055.61 642.944C1857.96 840.599 1746.91 1108.68 1746.91 1388.21V3170.74C1746.91 3199.91 1762.48 3226.88 1787.75 3241.49M1787.75 3241.49L1788.08 3240.91M1787.75 3241.49C1813.02 3256.07 1844.17 3256.07 1869.44 3241.49M1869.44 3241.49L1869.12 3240.93M1942.33 529.666C2170.08 301.958 2478.84 173.869 2800.88 173.514C3122.96 173.87 3431.69 301.945 3659.43 529.666C3887.14 757.413 4015.22 1066.16 4015.58 1388.21V3170.74C4015.58 3257.34 3969.38 3337.36 3894.38 3380.68C3819.37 3423.96 3726.97 3423.96 3651.97 3380.68C3576.96 3337.36 3530.76 3257.34 3530.76 3170.74C3530.76 3141.56 3515.18 3114.59 3489.92 3100C3464.65 3085.4 3433.51 3085.4 3408.23 3100C3382.96 3114.59 3367.39 3141.56 3367.39 3170.74C3367.39 3257.34 3321.2 3337.36 3246.19 3380.68C3171.18 3423.96 3078.79 3423.96 3003.78 3380.68C2928.77 3337.36 2882.57 3257.34 2882.57 3170.74C2882.57 3141.56 2867 3114.59 2841.73 3100C2816.46 3085.4 2785.31 3085.4 2760.04 3100C2734.77 3114.59 2719.2 3141.56 2719.2 3170.74C2719.2 3257.34 2673 3337.36 2597.99 3380.68C2522.98 3423.96 2430.59 3423.96 2355.58 3380.68C2280.57 3337.36 2234.38 3257.34 2234.38 3170.74C2234.38 3141.56 2218.81 3114.59 2193.53 3100C2168.26 3085.4 2137.12 3085.4 2111.85 3100C2086.58 3114.59 2071.01 3141.56 2071.01 3170.74C2071.01 3257.34 2024.81 3337.36 1949.8 3380.68C1874.79 3423.96 1782.4 3423.96 1707.39 3380.68C1632.38 3337.36 1586.19 3257.34 1586.19 3170.74V1388.21C1586.54 1066.14 1714.62 757.4 1942.33 529.666Z" stroke="white"/>
<path d="M2638.84 1388.21C2638.84 1301.37 2592.52 1221.13 2517.3 1177.69C2442.09 1134.29 2349.44 1134.29 2274.23 1177.69C2199.02 1221.13 2152.7 1301.37 2152.7 1388.21C2152.7 1417.15 2168.14 1443.9 2193.21 1458.39C2218.27 1472.85 2249.17 1472.85 2274.23 1458.39C2299.3 1443.9 2314.74 1417.15 2314.74 1388.21C2314.74 1359.27 2330.19 1332.51 2355.26 1318.03C2380.32 1303.57 2411.21 1303.57 2436.28 1318.03C2461.35 1332.52 2476.79 1359.27 2476.79 1388.21C2476.79 1417.15 2492.24 1443.9 2517.3 1458.39C2542.37 1472.85 2573.26 1472.85 2598.33 1458.39C2623.39 1443.9 2638.84 1417.15 2638.84 1388.21Z" fill="#111827"/>
<path d="M3206 1145.14C3141.56 1145.22 3079.78 1170.84 3034.2 1216.41C2988.64 1261.98 2963.01 1323.76 2962.93 1388.21C2962.93 1417.15 2978.38 1443.9 3003.45 1458.39C3028.51 1472.85 3059.4 1472.85 3084.46 1458.39C3109.54 1443.9 3124.98 1417.15 3124.98 1388.21C3124.98 1359.27 3140.43 1332.51 3165.49 1318.03C3190.55 1303.57 3221.45 1303.57 3246.52 1318.03C3271.58 1332.52 3287.03 1359.27 3287.03 1388.21C3287.03 1417.15 3302.47 1443.9 3327.53 1458.39C3352.61 1472.85 3383.5 1472.85 3408.56 1458.39C3433.63 1443.9 3449.07 1417.15 3449.07 1388.21C3449 1323.76 3423.37 1261.98 3377.81 1216.41C3332.23 1170.84 3270.45 1145.22 3206 1145.14Z" fill="#111827"/>
<path d="M2962.94 1955.38C2941.44 1955.37 2920.83 1963.89 2905.63 1979.08C2890.43 1994.29 2881.9 2014.91 2881.91 2036.4C2881.91 2065.34 2866.47 2092.1 2841.4 2106.57C2816.33 2121.05 2785.44 2121.05 2760.37 2106.57C2735.31 2092.1 2719.86 2065.34 2719.86 2036.4C2719.86 2007.47 2704.42 1980.71 2679.35 1966.23C2654.28 1951.76 2623.39 1951.76 2598.33 1966.23C2573.26 1980.71 2557.81 2007.47 2557.81 2036.4C2557.81 2123.24 2604.14 2203.5 2679.35 2246.92C2754.56 2290.32 2847.21 2290.32 2922.42 2246.92C2997.64 2203.5 3043.96 2123.24 3043.96 2036.4C3043.97 2014.91 3035.43 1994.3 3020.24 1979.08C3005.04 1963.89 2984.43 1955.37 2962.94 1955.38Z" fill="#111827"/>
</g>
</g>
<defs>
<clipPath id="clip0_1_2">
<rect width="4368" height="3481" fill="white"/>
</clipPath>
</defs>
</svg>
