<svg width="4368" height="3481" viewBox="0 0 4368 3481" fill="none" xmlns="http://www.w3.org/2000/svg">
<circle cx="2371" cy="1869" r="1612" fill="#2463EB"/>
<mask id="mask0_1_2" style="mask-type:luminance" maskUnits="userSpaceOnUse" x="1519" y="701" width="1704" height="2241">
<path d="M3222.16 701H1519V2942H3222.16V701Z" fill="white"/>
</mask>
<g mask="url(#mask0_1_2)">
<path d="M2370.31 723.111H2370.29H2370.27C2150.46 723.353 1939.73 810.774 1784.29 966.194H1784.29C1628.86 1121.62 1541.45 1332.35 1541.21 1552.17V1552.18V1552.19V2735.96C1541.21 2801.47 1576.16 2862.02 1632.9 2894.78H1632.91C1689.65 2927.53 1759.55 2927.53 1816.29 2894.78H1816.3C1873.04 2862.02 1907.99 2801.47 1907.99 2735.96C1907.99 2724.59 1914.06 2714.08 1923.91 2708.38C1933.76 2702.7 1945.9 2702.7 1955.74 2708.38C1965.6 2714.08 1971.67 2724.59 1971.67 2735.96C1971.67 2801.47 2006.62 2862.02 2063.36 2894.78H2063.37C2120.11 2927.53 2190.01 2927.53 2246.75 2894.78H2246.76C2303.5 2862.02 2338.45 2801.47 2338.45 2735.96C2338.45 2724.59 2344.52 2714.08 2354.37 2708.38C2364.22 2702.7 2376.35 2702.7 2386.2 2708.38C2396.06 2714.08 2402.13 2724.59 2402.13 2735.96C2402.13 2801.47 2437.07 2862.02 2493.83 2894.78C2550.57 2927.53 2620.46 2927.53 2677.21 2894.78H2677.22C2733.96 2862.02 2768.92 2801.47 2768.92 2735.96C2768.92 2724.59 2774.98 2714.08 2784.83 2708.38C2794.67 2702.7 2806.81 2702.7 2816.66 2708.38C2826.52 2714.08 2832.59 2724.59 2832.59 2735.96C2832.59 2801.47 2867.54 2862.02 2924.28 2894.78C2981.03 2927.53 3050.93 2927.53 3107.68 2894.78C3164.42 2862.02 3199.37 2801.47 3199.37 2735.96V1552.19V1552.18V1552.17C3199.13 1332.36 3111.71 1121.63 2956.29 966.194C2800.86 810.765 2590.14 723.354 2370.31 723.111Z" fill="white" stroke="white" stroke-width="50"/>
<path d="M3069.78 2818.15L3069.79 1552.19C3069.79 1366.66 2996.09 1188.76 2864.91 1057.57C2733.73 926.392 2555.82 852.694 2370.29 852.694" stroke="#CBD5E1" stroke-width="109.11" stroke-linecap="round"/>
<path d="M2127.94 2782.94C2144.72 2792.63 2165.4 2792.63 2182.18 2782.94C2198.97 2773.25 2209.31 2755.33 2209.31 2735.96C2209.31 2678.45 2239.99 2625.3 2289.8 2596.54C2339.61 2567.79 2400.97 2567.79 2450.78 2596.54C2500.59 2625.3 2531.27 2678.45 2531.27 2735.96C2531.27 2755.33 2541.62 2773.24 2558.39 2782.94C2575.18 2792.63 2595.86 2792.63 2612.64 2782.94C2629.43 2773.25 2639.76 2755.33 2639.76 2735.96C2639.76 2678.45 2670.44 2625.3 2720.26 2596.54C2770.07 2567.79 2831.43 2567.79 2881.24 2596.54C2931.05 2625.3 2961.73 2678.45 2961.73 2735.96C2961.73 2755.33 2972.07 2773.24 2988.86 2782.94C3005.64 2792.63 3026.32 2792.63 3043.1 2782.94C3059.89 2773.25 3070.23 2755.33 3070.23 2735.96V1552.19C3070.23 1366.55 2996.49 1188.53 2865.23 1057.27C2733.96 925.996 2555.93 852.254 2370.29 852.254C2184.65 852.254 2006.62 925.996 1875.36 1057.27C1744.1 1188.53 1670.35 1366.56 1670.35 1552.19V2735.96C1670.35 2755.33 1680.69 2773.24 1697.48 2782.94C1714.26 2792.63 1734.94 2792.63 1751.72 2782.94C1768.51 2773.25 1778.85 2755.33 1778.85 2735.96C1778.85 2678.45 1809.53 2625.3 1859.34 2596.54C1909.15 2567.79 1970.51 2567.79 2020.32 2596.54C2070.13 2625.3 2100.81 2678.45 2100.81 2735.96C2100.81 2755.33 2111.15 2773.24 2127.94 2782.94ZM1800.13 982.039C1951.38 830.82 2156.42 745.757 2370.29 745.521C2584.18 745.758 2789.21 830.811 2940.44 982.039C3091.66 1133.28 3176.72 1338.32 3176.96 1552.19V2735.96C3176.96 2793.47 3146.28 2846.61 3096.47 2875.38C3046.66 2904.12 2985.3 2904.12 2935.49 2875.38C2885.68 2846.61 2855 2793.47 2855 2735.96C2855 2716.58 2844.65 2698.67 2827.88 2688.98C2811.09 2679.28 2790.41 2679.28 2773.63 2688.98C2756.84 2698.67 2746.51 2716.58 2746.51 2735.96C2746.51 2793.47 2715.83 2846.61 2666.01 2875.38C2616.2 2904.12 2554.84 2904.12 2505.03 2875.38C2455.22 2846.61 2424.54 2793.47 2424.54 2735.96C2424.54 2716.58 2414.2 2698.67 2397.41 2688.98C2380.63 2679.28 2359.95 2679.28 2343.17 2688.98C2326.38 2698.67 2316.04 2716.58 2316.04 2735.96C2316.04 2793.47 2285.36 2846.61 2235.55 2875.38C2185.74 2904.12 2124.38 2904.12 2074.57 2875.38C2024.76 2846.61 1994.08 2793.47 1994.08 2735.96C1994.08 2716.58 1983.74 2698.67 1966.95 2688.98C1950.17 2679.28 1929.49 2679.28 1912.71 2688.98C1895.92 2698.67 1885.58 2716.58 1885.58 2735.96C1885.58 2793.47 1854.9 2846.61 1805.09 2875.38C1755.28 2904.12 1693.92 2904.12 1644.11 2875.38C1594.3 2846.61 1563.62 2793.47 1563.62 2735.96V1552.19C1563.85 1338.31 1648.91 1133.28 1800.13 982.039Z" fill="#111827"/>
<path d="M2127.94 2782.94L2128.14 2782.59M2127.94 2782.94C2144.72 2792.63 2165.4 2792.63 2182.18 2782.94M2127.94 2782.94C2111.15 2773.24 2100.81 2755.33 2100.81 2735.96C2100.81 2678.45 2070.13 2625.3 2020.32 2596.54C1970.51 2567.79 1909.15 2567.79 1859.34 2596.54C1809.53 2625.3 1778.85 2678.45 1778.85 2735.96C1778.85 2755.33 1768.51 2773.25 1751.72 2782.94M2182.18 2782.94L2181.99 2782.6M2182.18 2782.94C2198.97 2773.25 2209.31 2755.33 2209.31 2735.96C2209.31 2678.45 2239.99 2625.3 2289.8 2596.54C2339.61 2567.79 2400.97 2567.79 2450.78 2596.54C2500.59 2625.3 2531.27 2678.45 2531.27 2735.96C2531.27 2755.33 2541.62 2773.24 2558.39 2782.94C2575.18 2792.63 2595.86 2792.63 2612.64 2782.94C2629.43 2773.25 2639.76 2755.33 2639.76 2735.96C2639.76 2678.45 2670.44 2625.3 2720.26 2596.54C2770.07 2567.79 2831.43 2567.79 2881.24 2596.54C2931.05 2625.3 2961.73 2678.45 2961.73 2735.96C2961.73 2755.33 2972.07 2773.24 2988.86 2782.94C3005.64 2792.63 3026.32 2792.63 3043.1 2782.94C3059.89 2773.25 3070.23 2755.33 3070.23 2735.96V1552.19C3070.23 1366.55 2996.49 1188.53 2865.23 1057.27C2733.96 925.996 2555.93 852.254 2370.29 852.254C2184.65 852.254 2006.62 925.996 1875.36 1057.27C1744.1 1188.53 1670.35 1366.56 1670.35 1552.19V2735.96C1670.35 2755.33 1680.69 2773.24 1697.48 2782.94M1697.48 2782.94L1697.7 2782.56M1697.48 2782.94C1714.26 2792.63 1734.94 2792.63 1751.72 2782.94M1751.72 2782.94L1751.51 2782.57M1800.13 982.039C1951.38 830.82 2156.42 745.757 2370.29 745.521C2584.18 745.758 2789.21 830.811 2940.44 982.039C3091.66 1133.28 3176.72 1338.32 3176.96 1552.19V2735.96C3176.96 2793.47 3146.28 2846.61 3096.47 2875.38C3046.66 2904.12 2985.3 2904.12 2935.49 2875.38C2885.68 2846.61 2855 2793.47 2855 2735.96C2855 2716.58 2844.65 2698.67 2827.88 2688.98C2811.09 2679.28 2790.41 2679.28 2773.63 2688.98C2756.84 2698.67 2746.51 2716.58 2746.51 2735.96C2746.51 2793.47 2715.83 2846.61 2666.01 2875.38C2616.2 2904.12 2554.84 2904.12 2505.03 2875.38C2455.22 2846.61 2424.54 2793.47 2424.54 2735.96C2424.54 2716.58 2414.2 2698.67 2397.41 2688.98C2380.63 2679.28 2359.95 2679.28 2343.17 2688.98C2326.38 2698.67 2316.04 2716.58 2316.04 2735.96C2316.04 2793.47 2285.36 2846.61 2235.55 2875.38C2185.74 2904.12 2124.38 2904.12 2074.57 2875.38C2024.76 2846.61 1994.08 2793.47 1994.08 2735.96C1994.08 2716.58 1983.74 2698.67 1966.95 2688.98C1950.17 2679.28 1929.49 2679.28 1912.71 2688.98C1895.92 2698.67 1885.58 2716.58 1885.58 2735.96C1885.58 2793.47 1854.9 2846.61 1805.09 2875.38C1755.28 2904.12 1693.92 2904.12 1644.11 2875.38C1594.3 2846.61 1563.62 2793.47 1563.62 2735.96V1552.19C1563.85 1338.31 1648.91 1133.28 1800.13 982.039Z" stroke="white"/>
<path d="M2262.68 1552.19C2262.68 1494.52 2231.91 1441.23 2181.97 1412.39C2132.02 1383.56 2070.49 1383.56 2020.54 1412.39C1970.6 1441.23 1939.83 1494.52 1939.83 1552.19C1939.83 1571.41 1950.09 1589.17 1966.74 1598.8C1983.38 1608.4 2003.9 1608.4 2020.54 1598.8C2037.19 1589.17 2047.45 1571.41 2047.45 1552.19C2047.45 1532.97 2057.7 1515.2 2074.35 1505.59C2091 1495.98 2111.51 1495.98 2128.16 1505.59C2144.81 1515.21 2155.06 1532.97 2155.06 1552.19C2155.06 1571.41 2165.32 1589.17 2181.97 1598.8C2198.61 1608.4 2219.13 1608.4 2235.77 1598.8C2252.42 1589.17 2262.68 1571.41 2262.68 1552.19Z" fill="#111827"/>
<path d="M2639.32 1390.77C2596.53 1390.82 2555.5 1407.84 2525.24 1438.1C2494.98 1468.36 2477.95 1509.39 2477.9 1552.19C2477.9 1571.41 2488.17 1589.17 2504.81 1598.8C2521.46 1608.4 2541.97 1608.4 2558.61 1598.8C2575.27 1589.17 2585.52 1571.41 2585.52 1552.19C2585.52 1532.97 2595.78 1515.2 2612.42 1505.59C2629.07 1495.98 2649.59 1495.98 2666.23 1505.59C2682.88 1515.21 2693.13 1532.97 2693.13 1552.19C2693.13 1571.41 2703.39 1589.17 2720.04 1598.8C2736.69 1608.4 2757.2 1608.4 2773.85 1598.8C2790.49 1589.17 2800.75 1571.41 2800.75 1552.19C2800.7 1509.39 2783.68 1468.36 2753.42 1438.1C2723.16 1407.84 2682.12 1390.82 2639.32 1390.77Z" fill="#111827"/>
<path d="M2477.91 1928.85C2463.63 1928.84 2449.95 1934.5 2439.85 1944.59C2429.76 1954.69 2424.09 1968.38 2424.1 1982.65C2424.1 2001.87 2413.84 2019.64 2397.2 2029.25C2380.55 2038.87 2360.03 2038.87 2343.39 2029.25C2326.74 2019.64 2316.48 2001.87 2316.48 1982.65C2316.48 1963.44 2306.23 1945.67 2289.58 1936.05C2272.93 1926.44 2252.42 1926.44 2235.77 1936.05C2219.13 1945.67 2208.87 1963.44 2208.87 1982.65C2208.87 2040.32 2239.63 2093.62 2289.58 2122.45C2339.53 2151.28 2401.06 2151.28 2451 2122.45C2500.95 2093.62 2531.71 2040.32 2531.71 1982.65C2531.72 1968.38 2526.05 1954.69 2515.96 1944.59C2505.87 1934.5 2492.18 1928.84 2477.91 1928.85Z" fill="#111827"/>
</g>
</svg>
