<svg width="5328" height="5328" viewBox="0 0 5328 5328" fill="none" xmlns="http://www.w3.org/2000/svg">
<rect width="5328" height="5328" rx="2664" fill="#FBBF24"/>
<g clip-path="url(#clip0_1908_358)">
<path d="M2663.78 1112.49C2469.11 1112.7 2282.47 1190.13 2144.8 1327.78C2007.15 1465.44 1929.73 1652.07 1929.52 1846.75V2923.68C1929.52 2976.14 1957.5 3024.62 2002.94 3050.86C2048.38 3077.09 2104.36 3077.09 2149.8 3050.86C2195.24 3024.62 2223.22 2976.14 2223.22 2923.68C2223.22 2906.19 2232.55 2890.03 2247.7 2881.28C2262.84 2872.54 2281.5 2872.54 2296.65 2881.28C2311.79 2890.03 2321.12 2906.19 2321.12 2923.68C2321.12 2976.14 2349.11 3024.62 2394.55 3050.86C2439.99 3077.09 2495.96 3077.09 2541.4 3050.86C2586.84 3024.62 2614.83 2976.14 2614.83 2923.68C2614.83 2906.19 2624.16 2890.03 2639.31 2881.28C2654.45 2872.54 2673.11 2872.54 2688.26 2881.28C2703.4 2890.03 2712.73 2906.19 2712.73 2923.68C2712.73 2976.14 2740.72 3024.62 2786.16 3050.86C2831.6 3077.09 2887.57 3077.09 2933.01 3050.86C2978.45 3024.62 3006.44 2976.14 3006.44 2923.68C3006.44 2906.19 3015.77 2890.03 3030.91 2881.28C3046.06 2872.54 3064.72 2872.54 3079.87 2881.28C3095.01 2890.03 3104.34 2906.19 3104.34 2923.68C3104.34 2976.14 3132.33 3024.62 3177.77 3050.86C3223.21 3077.09 3279.18 3077.09 3324.62 3050.86C3370.06 3024.62 3398.05 2976.14 3398.05 2923.68V1846.75C3397.83 1652.08 3320.41 1465.45 3182.76 1327.78C3045.1 1190.12 2858.47 1112.7 2663.78 1112.49Z" fill="white"/>
<path d="M3300.14 2998.45L3300.15 1846.76C3300.15 1677.97 3233.1 1516.12 3113.76 1396.78C2994.42 1277.44 2832.56 1210.39 2663.78 1210.39" stroke="#D5E7FF" stroke-width="87.2337" stroke-linecap="round"/>
<path d="M2663.78 1112.49C2469.11 1112.7 2282.47 1190.13 2144.8 1327.78C2007.15 1465.44 1929.73 1652.07 1929.52 1846.75V2923.68C1929.52 2976.14 1957.5 3024.62 2002.94 3050.86C2048.38 3077.09 2104.36 3077.09 2149.8 3050.86C2195.24 3024.62 2223.22 2976.14 2223.22 2923.68C2223.22 2906.19 2232.55 2890.03 2247.7 2881.28C2262.84 2872.54 2281.5 2872.54 2296.65 2881.28C2311.79 2890.03 2321.12 2906.19 2321.12 2923.68C2321.12 2976.14 2349.11 3024.62 2394.55 3050.86C2439.99 3077.09 2495.96 3077.09 2541.4 3050.86C2586.84 3024.62 2614.83 2976.14 2614.83 2923.68C2614.83 2906.19 2624.16 2890.03 2639.31 2881.28C2654.45 2872.54 2673.11 2872.54 2688.26 2881.28C2703.4 2890.03 2712.73 2906.19 2712.73 2923.68C2712.73 2976.14 2740.72 3024.62 2786.16 3050.86C2831.6 3077.09 2887.57 3077.09 2933.01 3050.86C2978.45 3024.62 3006.44 2976.14 3006.44 2923.68C3006.44 2906.19 3015.77 2890.03 3030.91 2881.28C3046.06 2872.54 3064.72 2872.54 3079.87 2881.28C3095.01 2890.03 3104.34 2906.19 3104.34 2923.68C3104.34 2976.14 3132.33 3024.62 3177.77 3050.86C3223.21 3077.09 3279.18 3077.09 3324.62 3050.86C3370.06 3024.62 3398.05 2976.14 3398.05 2923.68V1846.75C3397.83 1652.08 3320.41 1465.45 3182.76 1327.78C3045.1 1190.12 2858.47 1112.7 2663.78 1112.49ZM3300.14 2923.68C3300.14 2941.16 3290.81 2957.32 3275.67 2966.07C3260.53 2974.82 3241.86 2974.82 3226.72 2966.07C3211.57 2957.32 3202.24 2941.16 3202.24 2923.68C3202.24 2871.22 3174.26 2822.73 3128.82 2796.5C3083.38 2770.27 3027.4 2770.27 2981.96 2796.5C2936.52 2822.73 2908.54 2871.22 2908.54 2923.68C2908.54 2941.16 2899.21 2957.32 2884.06 2966.07C2868.92 2974.82 2850.25 2974.82 2835.11 2966.07C2819.97 2957.32 2810.63 2941.16 2810.63 2923.68C2810.63 2871.22 2782.65 2822.73 2737.21 2796.5C2691.77 2770.27 2635.8 2770.27 2590.35 2796.5C2544.91 2822.73 2516.93 2871.22 2516.93 2923.68C2516.93 2941.16 2507.6 2957.32 2492.45 2966.07C2477.31 2974.82 2458.65 2974.82 2443.5 2966.07C2428.36 2957.32 2419.03 2941.16 2419.03 2923.68C2419.03 2871.22 2391.04 2822.73 2345.6 2796.5C2300.16 2770.27 2244.19 2770.27 2198.75 2796.5C2153.31 2822.73 2125.32 2871.22 2125.32 2923.68C2125.32 2941.16 2115.99 2957.32 2100.84 2966.07C2085.7 2974.82 2067.04 2974.82 2051.89 2966.07C2036.75 2957.32 2027.42 2941.16 2027.42 2923.68V1846.75C2027.42 1677.98 2094.47 1516.12 2213.81 1396.78C2333.15 1277.44 2495 1210.39 2663.78 1210.39C2832.57 1210.39 2994.42 1277.44 3113.76 1396.78C3233.1 1516.12 3300.15 1677.97 3300.15 1846.75L3300.14 2923.68Z" fill="#0F172A"/>
<path d="M2565.88 1846.75C2565.88 1794.29 2537.9 1745.81 2492.46 1719.57C2447.02 1693.35 2391.04 1693.35 2345.6 1719.57C2300.16 1745.81 2272.18 1794.29 2272.18 1846.75C2272.18 1864.24 2281.51 1880.4 2296.65 1889.15C2311.8 1897.89 2330.46 1897.89 2345.6 1889.15C2360.75 1880.4 2370.08 1864.24 2370.08 1846.75C2370.08 1829.27 2379.41 1813.11 2394.55 1804.36C2409.7 1795.62 2428.36 1795.62 2443.5 1804.36C2458.65 1813.11 2467.98 1829.27 2467.98 1846.75C2467.98 1864.24 2477.31 1880.4 2492.46 1889.15C2507.6 1897.89 2526.26 1897.89 2541.41 1889.15C2556.55 1880.4 2565.88 1864.24 2565.88 1846.75Z" fill="#0F172A"/>
<path d="M2908.54 1699.9C2869.6 1699.95 2832.27 1715.43 2804.74 1742.96C2777.21 1770.49 2761.73 1807.82 2761.68 1846.76C2761.68 1864.24 2771.01 1880.4 2786.16 1889.15C2801.3 1897.89 2819.97 1897.89 2835.11 1889.15C2850.25 1880.4 2859.59 1864.24 2859.59 1846.76C2859.59 1829.27 2868.92 1813.11 2884.06 1804.36C2899.21 1795.62 2917.87 1795.62 2933.01 1804.36C2948.16 1813.11 2957.49 1829.27 2957.49 1846.76C2957.49 1864.24 2966.82 1880.4 2981.96 1889.15C2997.11 1897.89 3015.77 1897.89 3030.91 1889.15C3046.06 1880.4 3055.39 1864.24 3055.39 1846.76C3055.34 1807.82 3039.86 1770.49 3012.33 1742.96C2984.8 1715.43 2947.47 1699.95 2908.54 1699.9Z" fill="#0F172A"/>
<path d="M2761.69 2189.41C2748.7 2189.41 2736.25 2194.56 2727.06 2203.74C2717.88 2212.93 2712.73 2225.38 2712.73 2238.37C2712.73 2255.85 2703.4 2272.01 2688.26 2280.76C2673.11 2289.5 2654.45 2289.5 2639.31 2280.76C2624.16 2272.01 2614.83 2255.85 2614.83 2238.37C2614.83 2220.88 2605.5 2204.72 2590.36 2195.97C2575.21 2187.23 2556.55 2187.23 2541.41 2195.97C2526.26 2204.72 2516.93 2220.88 2516.93 2238.37C2516.93 2290.83 2544.92 2339.31 2590.36 2365.55C2635.8 2391.77 2691.77 2391.77 2737.21 2365.55C2782.65 2339.31 2810.64 2290.83 2810.64 2238.37C2810.64 2225.38 2805.49 2212.93 2796.31 2203.74C2787.12 2194.56 2774.67 2189.41 2761.69 2189.41Z" fill="#0F172A"/>
</g>
<g clip-path="url(#clip1_1908_358)">
<path d="M3635.3 1856.47C3440.63 1856.68 3253.99 1934.11 3116.32 2071.75C2978.67 2209.41 2901.25 2396.04 2901.04 2590.73V3667.66C2901.04 3720.12 2929.02 3768.6 2974.46 3794.84C3019.9 3821.06 3075.87 3821.06 3121.31 3794.84C3166.76 3768.6 3194.74 3720.12 3194.74 3667.66C3194.74 3650.17 3204.07 3634.01 3219.22 3625.26C3234.36 3616.52 3253.02 3616.52 3268.17 3625.26C3283.31 3634.01 3292.64 3650.17 3292.64 3667.66C3292.64 3720.12 3320.63 3768.6 3366.07 3794.84C3411.51 3821.06 3467.48 3821.06 3512.92 3794.84C3558.36 3768.6 3586.35 3720.12 3586.35 3667.66C3586.35 3650.17 3595.68 3634.01 3610.83 3625.26C3625.97 3616.52 3644.63 3616.52 3659.78 3625.26C3674.92 3634.01 3684.25 3650.17 3684.25 3667.66C3684.25 3720.12 3712.24 3768.6 3757.68 3794.84C3803.12 3821.06 3859.09 3821.06 3904.53 3794.84C3949.97 3768.6 3977.96 3720.12 3977.96 3667.66C3977.96 3650.17 3987.29 3634.01 4002.43 3625.26C4017.58 3616.52 4036.24 3616.52 4051.38 3625.26C4066.53 3634.01 4075.86 3650.17 4075.86 3667.66C4075.86 3720.12 4103.85 3768.6 4149.29 3794.84C4194.73 3821.06 4250.7 3821.06 4296.14 3794.84C4341.58 3768.6 4369.57 3720.12 4369.57 3667.66V2590.73C4369.35 2396.06 4291.93 2209.42 4154.28 2071.75C4016.62 1934.1 3829.99 1856.68 3635.3 1856.47Z" fill="white"/>
<path d="M4271.66 3742.43L4271.67 2590.73C4271.67 2421.95 4204.62 2260.1 4085.28 2140.76C3965.94 2021.41 3804.08 1954.37 3635.3 1954.37" stroke="#D5E7FF" stroke-width="87.2337" stroke-linecap="round"/>
<path d="M3635.3 1856.47C3440.63 1856.68 3253.99 1934.11 3116.32 2071.75C2978.67 2209.41 2901.25 2396.04 2901.04 2590.73V3667.66C2901.04 3720.12 2929.02 3768.6 2974.46 3794.84C3019.9 3821.06 3075.87 3821.06 3121.31 3794.84C3166.76 3768.6 3194.74 3720.12 3194.74 3667.66C3194.74 3650.17 3204.07 3634.01 3219.22 3625.26C3234.36 3616.52 3253.02 3616.52 3268.17 3625.26C3283.31 3634.01 3292.64 3650.17 3292.64 3667.66C3292.64 3720.12 3320.63 3768.6 3366.07 3794.84C3411.51 3821.06 3467.48 3821.06 3512.92 3794.84C3558.36 3768.6 3586.35 3720.12 3586.35 3667.66C3586.35 3650.17 3595.68 3634.01 3610.83 3625.26C3625.97 3616.52 3644.63 3616.52 3659.78 3625.26C3674.92 3634.01 3684.25 3650.17 3684.25 3667.66C3684.25 3720.12 3712.24 3768.6 3757.68 3794.84C3803.12 3821.06 3859.09 3821.06 3904.53 3794.84C3949.97 3768.6 3977.96 3720.12 3977.96 3667.66C3977.96 3650.17 3987.29 3634.01 4002.43 3625.26C4017.58 3616.52 4036.24 3616.52 4051.38 3625.26C4066.53 3634.01 4075.86 3650.17 4075.86 3667.66C4075.86 3720.12 4103.85 3768.6 4149.29 3794.84C4194.73 3821.06 4250.7 3821.06 4296.14 3794.84C4341.58 3768.6 4369.57 3720.12 4369.57 3667.66V2590.73C4369.35 2396.06 4291.93 2209.42 4154.28 2071.75C4016.62 1934.1 3829.99 1856.68 3635.3 1856.47ZM4271.66 3667.66C4271.66 3685.14 4262.33 3701.3 4247.19 3710.05C4232.04 3718.79 4213.38 3718.79 4198.24 3710.05C4183.09 3701.3 4173.76 3685.14 4173.76 3667.66C4173.76 3615.19 4145.78 3566.71 4100.34 3540.47C4054.9 3514.25 3998.92 3514.25 3953.48 3540.47C3908.04 3566.71 3880.06 3615.19 3880.06 3667.66C3880.06 3685.14 3870.72 3701.3 3855.58 3710.05C3840.44 3718.79 3821.77 3718.79 3806.63 3710.05C3791.49 3701.3 3782.15 3685.14 3782.15 3667.66C3782.15 3615.19 3754.17 3566.71 3708.73 3540.47C3663.29 3514.25 3607.31 3514.25 3561.87 3540.47C3516.43 3566.71 3488.45 3615.19 3488.45 3667.66C3488.45 3685.14 3479.12 3701.3 3463.97 3710.05C3448.83 3718.79 3430.16 3718.79 3415.02 3710.05C3399.88 3701.3 3390.55 3685.14 3390.55 3667.66C3390.55 3615.19 3362.56 3566.71 3317.12 3540.47C3271.68 3514.25 3215.71 3514.25 3170.27 3540.47C3124.83 3566.71 3096.84 3615.19 3096.84 3667.66C3096.84 3685.14 3087.51 3701.3 3072.36 3710.05C3057.22 3718.79 3038.56 3718.79 3023.41 3710.05C3008.27 3701.3 2998.94 3685.14 2998.94 3667.66V2590.73C2998.94 2421.96 3065.98 2260.1 3185.33 2140.75C3304.67 2021.41 3466.52 1954.37 3635.3 1954.37C3804.09 1954.37 3965.94 2021.41 4085.28 2140.75C4204.62 2260.1 4271.67 2421.95 4271.67 2590.73L4271.66 3667.66Z" fill="#0F172A"/>
<path d="M3537.41 2590.73C3537.41 2538.27 3509.42 2489.78 3463.98 2463.55C3418.54 2437.32 3362.57 2437.32 3317.13 2463.55C3271.69 2489.78 3243.7 2538.27 3243.7 2590.73C3243.7 2608.22 3253.03 2624.38 3268.17 2633.13C3283.32 2641.87 3301.98 2641.87 3317.13 2633.13C3332.27 2624.38 3341.6 2608.21 3341.6 2590.73C3341.6 2573.25 3350.93 2557.08 3366.08 2548.34C3381.22 2539.59 3399.88 2539.59 3415.03 2548.34C3430.17 2557.09 3439.5 2573.25 3439.5 2590.73C3439.5 2608.21 3448.83 2624.38 3463.98 2633.13C3479.12 2641.87 3497.79 2641.87 3512.93 2633.13C3528.07 2624.38 3537.41 2608.21 3537.41 2590.73Z" fill="#0F172A"/>
<path d="M3880.06 2443.88C3841.12 2443.92 3803.79 2459.41 3776.26 2486.94C3748.73 2514.47 3733.25 2551.8 3733.2 2590.73C3733.2 2608.22 3742.53 2624.38 3757.68 2633.13C3772.82 2641.87 3791.49 2641.87 3806.63 2633.13C3821.77 2624.38 3831.11 2608.22 3831.11 2590.73C3831.11 2573.25 3840.44 2557.09 3855.58 2548.34C3870.72 2539.59 3889.39 2539.59 3904.53 2548.34C3919.68 2557.09 3929.01 2573.25 3929.01 2590.73C3929.01 2608.22 3938.34 2624.38 3953.48 2633.13C3968.63 2641.87 3987.29 2641.87 4002.43 2633.13C4017.58 2624.38 4026.91 2608.22 4026.91 2590.73C4026.86 2551.8 4011.38 2514.47 3983.85 2486.94C3956.32 2459.41 3918.99 2443.92 3880.06 2443.88Z" fill="#0F172A"/>
<path d="M3733.21 2933.39C3720.22 2933.38 3707.77 2938.54 3698.58 2947.72C3689.4 2956.9 3684.25 2969.35 3684.25 2982.34C3684.25 2999.83 3674.92 3015.99 3659.78 3024.74C3644.63 3033.48 3625.97 3033.48 3610.83 3024.74C3595.68 3015.99 3586.35 2999.83 3586.35 2982.34C3586.35 2964.86 3577.02 2948.69 3561.88 2939.95C3546.73 2931.2 3528.07 2931.2 3512.92 2939.95C3497.78 2948.7 3488.45 2964.86 3488.45 2982.34C3488.45 3034.8 3516.44 3083.29 3561.88 3109.52C3607.32 3135.75 3663.29 3135.75 3708.73 3109.52C3754.17 3083.29 3782.16 3034.8 3782.16 2982.34C3782.16 2969.35 3777.01 2956.9 3767.83 2947.72C3758.64 2938.54 3746.19 2933.38 3733.21 2933.39Z" fill="#0F172A"/>
</g>
<g clip-path="url(#clip2_1908_358)">
<path d="M1692.26 1856.47C1497.59 1856.68 1310.95 1934.11 1173.28 2071.75C1035.63 2209.41 958.211 2396.04 957.996 2590.73V3667.66C957.996 3720.12 985.982 3768.6 1031.42 3794.84C1076.86 3821.06 1132.84 3821.06 1178.28 3794.84C1223.72 3768.6 1251.7 3720.12 1251.7 3667.66C1251.7 3650.17 1261.03 3634.01 1276.18 3625.26C1291.32 3616.52 1309.99 3616.52 1325.13 3625.26C1340.27 3634.01 1349.6 3650.17 1349.6 3667.66C1349.6 3720.12 1377.59 3768.6 1423.03 3794.84C1468.47 3821.06 1524.44 3821.06 1569.88 3794.84C1615.32 3768.6 1643.31 3720.12 1643.31 3667.66C1643.31 3650.17 1652.64 3634.01 1667.79 3625.26C1682.93 3616.52 1701.59 3616.52 1716.74 3625.26C1731.88 3634.01 1741.21 3650.17 1741.21 3667.66C1741.21 3720.12 1769.2 3768.6 1814.64 3794.84C1860.08 3821.06 1916.05 3821.06 1961.49 3794.84C2006.93 3768.6 2034.92 3720.12 2034.92 3667.66C2034.92 3650.17 2044.25 3634.01 2059.39 3625.26C2074.54 3616.52 2093.2 3616.52 2108.35 3625.26C2123.49 3634.01 2132.82 3650.17 2132.82 3667.66C2132.82 3720.12 2160.81 3768.6 2206.25 3794.84C2251.69 3821.06 2307.66 3821.06 2353.1 3794.84C2398.54 3768.6 2426.53 3720.12 2426.53 3667.66V2590.73C2426.31 2396.06 2348.89 2209.42 2211.24 2071.75C2073.58 1934.1 1886.95 1856.68 1692.26 1856.47Z" fill="white"/>
<path d="M2328.62 3742.43L2328.63 2590.73C2328.63 2421.95 2261.58 2260.1 2142.24 2140.76C2022.9 2021.41 1861.04 1954.37 1692.26 1954.37" stroke="#D5E7FF" stroke-width="87.2337" stroke-linecap="round"/>
<path d="M1692.26 1856.47C1497.59 1856.68 1310.95 1934.11 1173.28 2071.75C1035.63 2209.41 958.211 2396.04 957.996 2590.73V3667.66C957.996 3720.12 985.982 3768.6 1031.42 3794.84C1076.86 3821.06 1132.84 3821.06 1178.28 3794.84C1223.72 3768.6 1251.7 3720.12 1251.7 3667.66C1251.7 3650.17 1261.03 3634.01 1276.18 3625.26C1291.32 3616.52 1309.99 3616.52 1325.13 3625.26C1340.27 3634.01 1349.6 3650.17 1349.6 3667.66C1349.6 3720.12 1377.59 3768.6 1423.03 3794.84C1468.47 3821.06 1524.44 3821.06 1569.88 3794.84C1615.32 3768.6 1643.31 3720.12 1643.31 3667.66C1643.31 3650.17 1652.64 3634.01 1667.79 3625.26C1682.93 3616.52 1701.59 3616.52 1716.74 3625.26C1731.88 3634.01 1741.21 3650.17 1741.21 3667.66C1741.21 3720.12 1769.2 3768.6 1814.64 3794.84C1860.08 3821.06 1916.05 3821.06 1961.49 3794.84C2006.93 3768.6 2034.92 3720.12 2034.92 3667.66C2034.92 3650.17 2044.25 3634.01 2059.39 3625.26C2074.54 3616.52 2093.2 3616.52 2108.35 3625.26C2123.49 3634.01 2132.82 3650.17 2132.82 3667.66C2132.82 3720.12 2160.81 3768.6 2206.25 3794.84C2251.69 3821.06 2307.66 3821.06 2353.1 3794.84C2398.54 3768.6 2426.53 3720.12 2426.53 3667.66V2590.73C2426.31 2396.06 2348.89 2209.42 2211.24 2071.75C2073.58 1934.1 1886.95 1856.68 1692.26 1856.47ZM2328.63 3667.66C2328.63 3685.14 2319.29 3701.3 2304.15 3710.05C2289.01 3718.79 2270.34 3718.79 2255.2 3710.05C2240.05 3701.3 2230.72 3685.14 2230.72 3667.66C2230.72 3615.19 2202.74 3566.71 2157.3 3540.47C2111.86 3514.25 2055.88 3514.25 2010.44 3540.47C1965 3566.71 1937.02 3615.19 1937.02 3667.66C1937.02 3685.14 1927.69 3701.3 1912.54 3710.05C1897.4 3718.79 1878.73 3718.79 1863.59 3710.05C1848.45 3701.3 1839.11 3685.14 1839.11 3667.66C1839.11 3615.19 1811.13 3566.71 1765.69 3540.47C1720.25 3514.25 1664.28 3514.25 1618.84 3540.47C1573.39 3566.71 1545.41 3615.19 1545.41 3667.66C1545.41 3685.14 1536.08 3701.3 1520.93 3710.05C1505.79 3718.79 1487.13 3718.79 1471.98 3710.05C1456.84 3701.3 1447.51 3685.14 1447.51 3667.66C1447.51 3615.19 1419.52 3566.71 1374.08 3540.47C1328.64 3514.25 1272.67 3514.25 1227.23 3540.47C1181.79 3566.71 1153.8 3615.19 1153.8 3667.66C1153.8 3685.14 1144.47 3701.3 1129.32 3710.05C1114.18 3718.79 1095.52 3718.79 1080.37 3710.05C1065.23 3701.3 1055.9 3685.14 1055.9 3667.66V2590.73C1055.9 2421.96 1122.95 2260.1 1242.29 2140.75C1361.63 2021.41 1523.48 1954.37 1692.26 1954.37C1861.05 1954.37 2022.9 2021.41 2142.24 2140.75C2261.58 2260.1 2328.63 2421.95 2328.63 2590.73L2328.63 3667.66Z" fill="#0F172A"/>
<path d="M1594.36 2590.73C1594.36 2538.27 1566.38 2489.78 1520.94 2463.55C1475.5 2437.32 1419.52 2437.32 1374.08 2463.55C1328.64 2489.78 1300.66 2538.27 1300.66 2590.73C1300.66 2608.22 1309.99 2624.38 1325.13 2633.13C1340.28 2641.87 1358.94 2641.87 1374.08 2633.13C1389.23 2624.38 1398.56 2608.21 1398.56 2590.73C1398.56 2573.25 1407.89 2557.08 1423.03 2548.34C1438.18 2539.59 1456.84 2539.59 1471.98 2548.34C1487.13 2557.09 1496.46 2573.25 1496.46 2590.73C1496.46 2608.21 1505.79 2624.38 1520.94 2633.13C1536.08 2641.87 1554.74 2641.87 1569.89 2633.13C1585.03 2624.38 1594.36 2608.21 1594.36 2590.73Z" fill="#0F172A"/>
<path d="M1937.02 2443.88C1898.09 2443.92 1860.75 2459.41 1833.23 2486.94C1805.69 2514.47 1790.21 2551.8 1790.16 2590.73C1790.16 2608.22 1799.5 2624.38 1814.64 2633.13C1829.78 2641.87 1848.45 2641.87 1863.59 2633.13C1878.73 2624.38 1888.07 2608.22 1888.07 2590.73C1888.07 2573.25 1897.4 2557.09 1912.54 2548.34C1927.69 2539.59 1946.35 2539.59 1961.49 2548.34C1976.64 2557.09 1985.97 2573.25 1985.97 2590.73C1985.97 2608.22 1995.3 2624.38 2010.44 2633.13C2025.59 2641.87 2044.25 2641.87 2059.39 2633.13C2074.54 2624.38 2083.87 2608.22 2083.87 2590.73C2083.82 2551.8 2068.34 2514.47 2040.81 2486.94C2013.28 2459.41 1975.95 2443.92 1937.02 2443.88Z" fill="#0F172A"/>
<path d="M1790.17 2933.39C1777.18 2933.38 1764.73 2938.54 1755.54 2947.72C1746.36 2956.9 1741.21 2969.35 1741.21 2982.34C1741.21 2999.83 1731.88 3015.99 1716.74 3024.74C1701.59 3033.48 1682.93 3033.48 1667.79 3024.74C1652.64 3015.99 1643.31 2999.83 1643.31 2982.34C1643.31 2964.86 1633.98 2948.69 1618.84 2939.95C1603.69 2931.2 1585.03 2931.2 1569.89 2939.95C1554.74 2948.7 1545.41 2964.86 1545.41 2982.34C1545.41 3034.8 1573.4 3083.29 1618.84 3109.52C1664.28 3135.75 1720.25 3135.75 1765.69 3109.52C1811.13 3083.29 1839.12 3034.8 1839.12 2982.34C1839.12 2969.35 1833.97 2956.9 1824.79 2947.72C1815.6 2938.54 1803.15 2933.38 1790.17 2933.39Z" fill="#0F172A"/>
</g>
<defs>
<clipPath id="clip0_1908_358">
<rect width="1470" height="1959.02" fill="white" transform="translate(1928.54 1112)"/>
</clipPath>
<clipPath id="clip1_1908_358">
<rect width="1470" height="1959.02" fill="white" transform="translate(2900.06 1855.98)"/>
</clipPath>
<clipPath id="clip2_1908_358">
<rect width="1470" height="1959.02" fill="white" transform="translate(957.016 1855.98)"/>
</clipPath>
</defs>
</svg>
