<svg width="4380" height="4320" viewBox="0 0 4380 4320" fill="none" xmlns="http://www.w3.org/2000/svg">
<g clip-path="url(#clip0_1914_67)">
<g clip-path="url(#clip1_1914_67)">
<path d="M2188.85 25.6116L2188.82 25.6116L2188.79 25.6116C1938.68 25.8868 1698.9 125.363 1522.02 302.207L1522.02 302.209C1345.17 479.073 1245.7 718.853 1245.42 968.984L1245.42 968.998V969.012V2316C1245.42 2390.55 1285.19 2459.44 1349.76 2496.72L1349.76 2496.72C1414.33 2533.99 1493.87 2533.99 1558.44 2496.72L1558.44 2496.72C1623.01 2459.44 1662.78 2390.55 1662.78 2316C1662.78 2303.07 1669.68 2291.1 1680.89 2284.62C1692.1 2278.15 1705.91 2278.15 1717.11 2284.62C1728.33 2291.1 1735.24 2303.07 1735.24 2316C1735.24 2390.55 1775 2459.44 1839.58 2496.72L1839.58 2496.72C1904.15 2533.99 1983.68 2533.99 2048.25 2496.72L2048.25 2496.72C2112.83 2459.44 2152.6 2390.55 2152.6 2316C2152.6 2303.07 2159.5 2291.1 2170.71 2284.62C2181.91 2278.15 2195.72 2278.15 2206.93 2284.62C2218.14 2291.1 2225.05 2303.07 2225.05 2316C2225.05 2390.55 2264.82 2459.44 2329.39 2496.72L2329.39 2496.72C2393.96 2533.99 2473.5 2533.99 2538.07 2496.72L2538.07 2496.72C2602.64 2459.44 2642.41 2390.55 2642.41 2316C2642.41 2303.07 2649.31 2291.1 2660.52 2284.62C2671.73 2278.15 2685.54 2278.15 2696.74 2284.62C2707.96 2291.1 2714.86 2303.07 2714.86 2316C2714.86 2390.55 2754.63 2459.44 2819.2 2496.72L2819.2 2496.72C2883.77 2533.99 2963.31 2533.99 3027.88 2496.72L3027.88 2496.72C3092.45 2459.44 3132.22 2390.55 3132.22 2316V969.012V968.998V968.984C3131.95 718.872 3032.47 479.085 2855.63 302.21L2855.62 302.208C2678.76 125.355 2438.98 25.8884 2188.85 25.6116Z" fill="white" stroke="white" stroke-width="50"/>
<path d="M2984.76 2409.52L2984.77 969.012C2984.77 757.902 2900.91 555.46 2751.64 406.192C2602.37 256.924 2399.93 173.063 2188.82 173.063" stroke="#CBD5E1" stroke-width="109.11" stroke-linecap="round"/>
<path d="M1913.05 2369.46L1913.28 2369.06L1913.05 2369.46C1932.15 2380.48 1955.68 2380.48 1974.78 2369.46L1974.55 2369.07L1974.78 2369.46C1993.88 2358.43 2005.64 2338.05 2005.64 2316C2005.64 2250.56 2040.55 2190.08 2097.23 2157.36C2153.91 2124.64 2223.73 2124.64 2280.41 2157.36C2337.09 2190.08 2372 2250.56 2372 2316C2372 2338.05 2383.77 2358.42 2402.87 2369.46C2421.96 2380.48 2445.5 2380.48 2464.59 2369.46C2483.69 2358.43 2495.46 2338.05 2495.46 2316C2495.46 2250.56 2530.36 2190.08 2587.05 2157.36C2643.73 2124.64 2713.54 2124.64 2770.23 2157.36C2826.91 2190.08 2861.82 2250.56 2861.82 2316C2861.82 2338.05 2873.58 2358.42 2892.68 2369.46C2911.77 2380.48 2935.31 2380.48 2954.41 2369.46C2973.5 2358.43 2985.27 2338.05 2985.27 2316L2985.27 969.012C2985.27 757.77 2901.36 555.2 2752 405.838C2602.63 256.476 2400.07 172.563 2188.82 172.563C1977.58 172.563 1775.01 256.476 1625.65 405.838C1476.29 555.203 1392.38 757.782 1392.38 969.012V2316C1392.38 2338.05 1404.14 2358.42 1423.24 2369.46L1423.49 2369.03L1423.24 2369.46C1442.33 2380.48 1465.87 2380.48 1484.97 2369.46L1484.72 2369.04L1484.97 2369.46C1504.06 2358.43 1515.83 2338.05 1515.83 2316C1515.83 2250.56 1550.74 2190.08 1607.42 2157.36C1664.1 2124.64 1733.92 2124.64 1790.6 2157.36C1847.28 2190.08 1882.19 2250.56 1882.19 2316C1882.19 2338.05 1893.96 2358.42 1913.05 2369.46ZM1540.05 320.24C1712.15 148.169 1945.46 51.3795 2188.82 51.1116C2432.2 51.381 2665.51 148.162 2837.59 320.24C3009.66 492.34 3106.45 725.654 3106.72 969.012V2316C3106.72 2381.44 3071.81 2441.92 3015.13 2474.64C2958.45 2507.36 2888.63 2507.36 2831.95 2474.64C2775.27 2441.92 2740.36 2381.44 2740.36 2316C2740.36 2293.95 2728.6 2273.57 2709.5 2262.54C2690.4 2251.51 2666.87 2251.51 2647.77 2262.54C2628.68 2273.57 2616.91 2293.95 2616.91 2316C2616.91 2381.44 2582 2441.92 2525.32 2474.64C2468.64 2507.36 2398.82 2507.36 2342.14 2474.64C2285.46 2441.92 2250.55 2381.44 2250.55 2316C2250.55 2293.95 2238.78 2273.57 2219.69 2262.54C2200.59 2251.51 2177.06 2251.51 2157.96 2262.54C2138.86 2273.57 2127.1 2293.95 2127.1 2316C2127.1 2381.44 2092.19 2441.92 2035.51 2474.64C1978.82 2507.36 1909.01 2507.36 1852.33 2474.64C1795.64 2441.92 1760.74 2381.44 1760.74 2316C1760.74 2293.95 1748.97 2273.57 1729.87 2262.54C1710.78 2251.51 1687.24 2251.51 1668.15 2262.54C1649.05 2273.57 1637.28 2293.95 1637.28 2316C1637.28 2381.44 1602.37 2441.92 1545.69 2474.64C1489.01 2507.36 1419.19 2507.36 1362.51 2474.64C1305.83 2441.92 1270.92 2381.44 1270.92 2316L1270.92 969.012C1271.19 725.634 1367.97 492.328 1540.05 320.24Z" fill="#111827" stroke="white"/>
<path d="M2066.37 969.011C2066.37 903.393 2031.37 842.75 1974.53 809.937C1917.7 777.132 1847.69 777.132 1790.85 809.937C1734.02 842.75 1699.01 903.393 1699.01 969.011C1699.01 990.881 1710.68 1011.1 1729.63 1022.04C1748.57 1032.97 1771.91 1032.97 1790.85 1022.04C1809.79 1011.09 1821.47 990.879 1821.47 969.011C1821.47 947.144 1833.14 926.926 1852.08 915.984C1871.02 905.049 1894.36 905.049 1913.31 915.984C1932.25 926.928 1943.92 947.144 1943.92 969.011C1943.92 990.879 1955.59 1011.1 1974.53 1022.04C1993.47 1032.97 2016.82 1032.97 2035.76 1022.04C2054.7 1011.09 2066.37 990.879 2066.37 969.011Z" fill="#111827"/>
<path d="M2494.96 785.332C2446.26 785.389 2399.57 804.752 2365.14 839.192C2330.7 873.623 2311.33 920.317 2311.28 969.012C2311.28 990.881 2322.95 1011.1 2341.89 1022.04C2360.83 1032.97 2384.18 1032.97 2403.12 1022.04C2422.06 1011.09 2433.73 990.88 2433.73 969.012C2433.73 947.144 2445.4 926.927 2464.34 915.985C2483.29 905.05 2506.63 905.05 2525.57 915.985C2544.51 926.929 2556.18 947.144 2556.18 969.012C2556.18 990.88 2567.86 1011.1 2586.8 1022.04C2605.74 1032.97 2629.08 1032.97 2648.02 1022.04C2666.97 1011.09 2678.64 990.88 2678.64 969.012C2678.58 920.317 2659.22 873.623 2624.78 839.192C2590.35 804.753 2543.65 785.388 2494.96 785.332Z" fill="#111827"/>
<path d="M2311.28 1397.6C2295.03 1397.59 2279.46 1404.04 2267.97 1415.52C2256.49 1427.01 2250.04 1442.58 2250.05 1458.83C2250.05 1480.7 2238.38 1500.91 2219.44 1511.85C2200.5 1522.79 2177.15 1522.79 2158.21 1511.85C2139.27 1500.91 2127.6 1480.7 2127.6 1458.83C2127.6 1436.96 2115.93 1416.74 2096.98 1405.8C2078.04 1394.87 2054.7 1394.87 2035.76 1405.8C2016.82 1416.74 2005.14 1436.96 2005.14 1458.83C2005.14 1524.45 2040.15 1585.09 2096.98 1617.9C2153.82 1650.71 2223.83 1650.71 2280.66 1617.9C2337.5 1585.09 2372.5 1524.45 2372.5 1458.83C2372.51 1442.58 2366.07 1427.01 2354.59 1415.52C2343.1 1404.04 2327.52 1397.59 2311.28 1397.6Z" fill="#111827"/>
</g>
<g clip-path="url(#clip2_1914_67)">
<path d="M3404 956.16L3403.97 956.16L3403.95 956.16C3153.83 956.435 2914.05 1055.91 2737.17 1232.76L2737.17 1232.76C2560.32 1409.62 2460.85 1649.4 2460.57 1899.53L2460.57 1899.55V1899.56V3246.55C2460.57 3321.09 2500.34 3389.99 2564.91 3427.27L2564.92 3427.27C2629.49 3464.54 2709.02 3464.54 2773.59 3427.27L2773.59 3427.27C2838.17 3389.99 2877.93 3321.09 2877.93 3246.55C2877.93 3233.61 2884.84 3221.65 2896.05 3215.17C2907.25 3208.7 2921.06 3208.7 2932.27 3215.17C2943.48 3221.65 2950.39 3233.61 2950.39 3246.55C2950.39 3321.09 2990.16 3389.99 3054.73 3427.27L3054.73 3427.27C3119.3 3464.54 3198.84 3464.54 3263.41 3427.27L3263.41 3427.27C3327.98 3389.99 3367.75 3321.09 3367.75 3246.55C3367.75 3233.61 3374.65 3221.65 3385.86 3215.17C3397.06 3208.7 3410.88 3208.7 3422.08 3215.17C3433.3 3221.65 3440.2 3233.61 3440.2 3246.55C3440.2 3321.09 3479.97 3389.99 3544.54 3427.27L3544.54 3427.27C3609.11 3464.54 3688.65 3464.54 3753.22 3427.27L3753.22 3427.27C3817.79 3389.99 3857.56 3321.09 3857.56 3246.55C3857.56 3233.61 3864.46 3221.65 3875.67 3215.17C3886.88 3208.7 3900.69 3208.7 3911.89 3215.17C3923.11 3221.65 3930.01 3233.61 3930.01 3246.55C3930.01 3321.09 3969.78 3389.99 4034.35 3427.27L4034.36 3427.27C4098.93 3464.54 4178.46 3464.54 4243.03 3427.27L4243.03 3427.27C4307.61 3389.99 4347.37 3321.09 4347.37 3246.55V1899.56V1899.55V1899.53C4347.1 1649.42 4247.62 1409.63 4070.78 1232.76L4070.78 1232.76C3893.91 1055.9 3654.13 956.436 3404 956.16Z" fill="white" stroke="white" stroke-width="50"/>
<path d="M4199.92 3340.07L4199.92 1899.56C4199.92 1688.45 4116.06 1486.01 3966.79 1336.74C3817.52 1187.47 3615.08 1103.61 3403.97 1103.61" stroke="#CBD5E1" stroke-width="109.11" stroke-linecap="round"/>
<path d="M3128.2 3300.01L3128.43 3299.61L3128.2 3300.01C3147.3 3311.03 3170.83 3311.03 3189.93 3300.01L3189.71 3299.62L3189.93 3300.01C3209.03 3288.98 3220.79 3268.59 3220.79 3246.55C3220.79 3181.11 3255.7 3120.63 3312.38 3087.91C3369.07 3055.19 3438.88 3055.19 3495.56 3087.91C3552.24 3120.63 3587.15 3181.11 3587.15 3246.55C3587.15 3268.59 3598.92 3288.97 3618.02 3300.01C3637.11 3311.03 3660.65 3311.03 3679.74 3300.01C3698.84 3288.98 3710.61 3268.59 3710.61 3246.55C3710.61 3181.11 3745.52 3120.63 3802.2 3087.91C3858.88 3055.19 3928.7 3055.19 3985.38 3087.91C4042.06 3120.63 4076.97 3181.11 4076.97 3246.55C4076.97 3268.59 4088.73 3288.97 4107.83 3300.01C4126.93 3311.03 4150.46 3311.03 4169.56 3300.01C4188.65 3288.98 4200.42 3268.59 4200.42 3246.55L4200.43 1899.56C4200.43 1688.32 4116.51 1485.75 3967.15 1336.39C3817.79 1187.02 3615.22 1103.11 3403.98 1103.11C3192.73 1103.11 2990.17 1187.02 2840.8 1336.39C2691.44 1485.75 2607.53 1688.33 2607.53 1899.56V3246.55C2607.53 3268.59 2619.29 3288.97 2638.39 3300.01L2638.64 3299.57L2638.39 3300.01C2657.49 3311.03 2681.02 3311.03 2700.12 3300.01L2699.87 3299.59L2700.12 3300.01C2719.21 3288.98 2730.98 3268.59 2730.98 3246.55C2730.98 3181.11 2765.89 3120.63 2822.57 3087.91C2879.25 3055.19 2949.07 3055.19 3005.75 3087.91C3062.43 3120.63 3097.34 3181.11 3097.34 3246.55C3097.34 3268.59 3109.11 3288.97 3128.2 3300.01ZM2755.2 1250.79C2927.3 1078.72 3160.62 981.928 3403.97 981.66C3647.35 981.929 3880.66 1078.71 4052.75 1250.79C4224.82 1422.89 4321.61 1656.2 4321.87 1899.56V3246.55C4321.87 3311.99 4286.97 3372.46 4230.28 3405.19C4173.6 3437.9 4103.79 3437.9 4047.1 3405.19C3990.42 3372.46 3955.51 3311.99 3955.51 3246.55C3955.51 3224.5 3943.75 3204.12 3924.65 3193.09C3905.56 3182.06 3882.02 3182.06 3862.92 3193.09C3843.83 3204.12 3832.06 3224.5 3832.06 3246.55C3832.06 3311.99 3797.15 3372.46 3740.47 3405.19C3683.79 3437.9 3613.97 3437.9 3557.29 3405.19C3500.61 3372.46 3465.7 3311.99 3465.7 3246.55C3465.7 3224.5 3453.93 3204.12 3434.84 3193.09C3415.74 3182.06 3392.21 3182.06 3373.11 3193.09C3354.01 3204.12 3342.25 3224.5 3342.25 3246.55C3342.25 3311.99 3307.34 3372.46 3250.66 3405.19C3193.98 3437.9 3124.16 3437.9 3067.48 3405.19C3010.8 3372.46 2975.89 3311.99 2975.89 3246.55C2975.89 3224.5 2964.12 3204.12 2945.02 3193.09C2925.93 3182.06 2902.39 3182.06 2883.3 3193.09C2864.2 3204.12 2852.43 3224.5 2852.43 3246.55C2852.43 3311.99 2817.52 3372.46 2760.84 3405.19C2704.16 3437.9 2634.35 3437.9 2577.66 3405.19C2520.98 3372.46 2486.07 3311.99 2486.07 3246.55L2486.07 1899.56C2486.34 1656.18 2583.12 1422.88 2755.2 1250.79Z" fill="#111827" stroke="white"/>
<path d="M3281.53 1899.56C3281.53 1833.94 3246.52 1773.3 3189.69 1740.48C3132.85 1707.68 3062.84 1707.68 3006.01 1740.48C2949.17 1773.3 2914.17 1833.94 2914.17 1899.56C2914.17 1921.43 2925.84 1941.64 2944.78 1952.59C2963.72 1963.52 2987.07 1963.52 3006.01 1952.59C3024.95 1941.64 3036.62 1921.43 3036.62 1899.56C3036.62 1877.69 3048.29 1857.47 3067.23 1846.53C3086.18 1835.6 3109.52 1835.6 3128.46 1846.53C3147.4 1857.48 3159.07 1877.69 3159.07 1899.56C3159.07 1921.43 3170.75 1941.64 3189.69 1952.59C3208.63 1963.52 3231.97 1963.52 3250.91 1952.59C3269.86 1941.64 3281.53 1921.43 3281.53 1899.56Z" fill="#111827"/>
<path d="M3710.11 1715.88C3661.41 1715.94 3614.72 1735.3 3580.29 1769.74C3545.85 1804.17 3526.49 1850.86 3526.43 1899.56C3526.43 1921.43 3538.1 1941.64 3557.04 1952.59C3575.99 1963.52 3599.33 1963.52 3618.27 1952.59C3637.21 1941.64 3648.88 1921.43 3648.88 1899.56C3648.88 1877.69 3660.55 1857.47 3679.5 1846.53C3698.44 1835.6 3721.78 1835.6 3740.72 1846.53C3759.67 1857.48 3771.34 1877.69 3771.34 1899.56C3771.34 1921.43 3783.01 1941.64 3801.95 1952.59C3820.89 1963.52 3844.24 1963.52 3863.18 1952.59C3882.12 1941.64 3893.79 1921.43 3893.79 1899.56C3893.73 1850.86 3874.37 1804.17 3839.93 1769.74C3805.5 1735.3 3758.8 1715.94 3710.11 1715.88Z" fill="#111827"/>
<path d="M3526.43 2328.15C3510.19 2328.14 3494.61 2334.58 3483.12 2346.06C3471.64 2357.55 3465.19 2373.13 3465.2 2389.37C3465.2 2411.24 3453.53 2431.46 3434.59 2442.4C3415.65 2453.34 3392.3 2453.34 3373.36 2442.4C3354.42 2431.46 3342.75 2411.24 3342.75 2389.37C3342.75 2367.51 3331.08 2347.29 3312.14 2336.35C3293.19 2325.41 3269.85 2325.41 3250.91 2336.35C3231.97 2347.29 3220.3 2367.51 3220.3 2389.37C3220.3 2454.99 3255.3 2515.64 3312.14 2548.45C3368.97 2581.25 3438.98 2581.25 3495.82 2548.45C3552.65 2515.64 3587.66 2454.99 3587.66 2389.37C3587.67 2373.13 3581.22 2357.56 3569.74 2346.06C3558.25 2334.58 3542.68 2328.14 3526.43 2328.15Z" fill="#111827"/>
</g>
<g clip-path="url(#clip3_1914_67)">
<path d="M973.697 956.16L973.67 956.16L973.642 956.16C723.53 956.435 483.743 1055.91 306.868 1232.76L306.866 1232.76C130.013 1409.62 30.5463 1649.4 30.2695 1899.53L30.2695 1899.55V1899.56V3246.55C30.2695 3321.09 70.0378 3389.99 134.61 3427.27L134.612 3427.27C199.181 3464.54 278.718 3464.54 343.287 3427.27L343.289 3427.27C407.861 3389.99 447.63 3321.09 447.63 3246.55C447.63 3233.61 454.532 3221.65 465.742 3215.17C476.947 3208.7 490.758 3208.7 501.963 3215.17C513.178 3221.65 520.083 3233.61 520.083 3246.55C520.083 3321.09 559.851 3389.99 624.423 3427.27L624.425 3427.27C688.995 3464.54 768.531 3464.54 833.101 3427.27L833.103 3427.27C897.675 3389.99 937.443 3321.09 937.443 3246.55C937.443 3233.61 944.345 3221.65 955.555 3215.17C966.76 3208.7 980.571 3208.7 991.776 3215.17C1002.99 3221.65 1009.9 3233.61 1009.9 3246.55C1009.9 3321.09 1049.66 3389.99 1114.24 3427.27L1114.24 3427.27C1178.81 3464.54 1258.34 3464.54 1322.91 3427.27L1322.92 3427.27C1387.49 3389.99 1427.26 3321.09 1427.26 3246.55C1427.26 3233.61 1434.16 3221.65 1445.37 3215.17C1456.57 3208.7 1470.38 3208.7 1481.59 3215.17C1492.81 3221.65 1499.71 3233.61 1499.71 3246.55C1499.71 3321.09 1539.48 3389.99 1604.05 3427.27L1604.05 3427.27C1668.62 3464.54 1748.16 3464.54 1812.73 3427.27L1812.73 3427.27C1877.3 3389.99 1917.07 3321.09 1917.07 3246.55V1899.56V1899.55V1899.53C1916.79 1649.42 1817.32 1409.63 1640.47 1232.76L1640.47 1232.76C1463.61 1055.9 1223.83 956.436 973.697 956.16Z" fill="white" stroke="white" stroke-width="50"/>
<path d="M1769.61 3340.07L1769.62 1899.56C1769.62 1688.45 1685.76 1486.01 1536.49 1336.74C1387.22 1187.47 1184.78 1103.61 973.668 1103.61" stroke="#CBD5E1" stroke-width="109.11" stroke-linecap="round"/>
<path d="M697.899 3300.01L698.128 3299.61L697.9 3300.01C716.995 3311.03 740.529 3311.03 759.626 3300.01L759.402 3299.62L759.626 3300.01C778.723 3288.98 790.49 3268.59 790.49 3246.55C790.49 3181.11 825.399 3120.63 882.08 3087.91C938.76 3055.19 1008.58 3055.19 1065.26 3087.91C1121.94 3120.63 1156.85 3181.11 1156.85 3246.55C1156.85 3268.59 1168.62 3288.97 1187.71 3300.01C1206.81 3311.03 1230.34 3311.03 1249.44 3300.01C1268.54 3288.98 1280.3 3268.59 1280.3 3246.55C1280.3 3181.11 1315.21 3120.63 1371.89 3087.91C1428.57 3055.19 1498.39 3055.19 1555.07 3087.91C1611.75 3120.63 1646.66 3181.11 1646.66 3246.55C1646.66 3268.59 1658.43 3288.97 1677.53 3300.01C1696.62 3311.03 1720.16 3311.03 1739.25 3300.01C1758.35 3288.98 1770.12 3268.59 1770.12 3246.55L1770.12 1899.56C1770.12 1688.32 1686.21 1485.75 1536.85 1336.39C1387.48 1187.02 1184.91 1103.11 973.672 1103.11C762.43 1103.11 559.86 1187.02 410.498 1336.39C261.137 1485.75 177.223 1688.33 177.223 1899.56V3246.55C177.223 3268.59 188.989 3288.97 208.086 3300.01L208.336 3299.57L208.086 3300.01C227.182 3311.03 250.716 3311.03 269.813 3300.01L269.57 3299.59L269.813 3300.01C288.91 3288.98 300.676 3268.59 300.676 3246.55C300.676 3181.11 335.585 3120.63 392.266 3087.91C448.947 3055.19 518.765 3055.19 575.446 3087.91C632.127 3120.63 667.036 3181.11 667.036 3246.55C667.036 3268.59 678.803 3288.97 697.899 3300.01ZM324.898 1250.79C496.998 1078.72 730.311 981.928 973.67 981.66C1217.05 981.929 1450.35 1078.71 1622.44 1250.79C1794.51 1422.89 1891.3 1656.2 1891.57 1899.56V3246.55C1891.57 3311.99 1856.66 3372.46 1799.98 3405.19C1743.3 3437.9 1673.48 3437.9 1616.8 3405.19C1560.12 3372.46 1525.21 3311.99 1525.21 3246.55C1525.21 3224.5 1513.44 3204.12 1494.35 3193.09C1475.25 3182.06 1451.72 3182.06 1432.62 3193.09C1413.52 3204.12 1401.76 3224.5 1401.76 3246.55C1401.76 3311.99 1366.85 3372.46 1310.17 3405.19C1253.49 3437.9 1183.67 3437.9 1126.99 3405.19C1070.31 3372.46 1035.4 3311.99 1035.4 3246.55C1035.4 3224.5 1023.63 3204.12 1004.53 3193.09C985.437 3182.06 961.903 3182.06 942.806 3193.09C923.709 3204.12 911.943 3224.5 911.943 3246.55C911.943 3311.99 877.034 3372.46 820.353 3405.19C763.672 3437.9 693.854 3437.9 637.173 3405.19C580.492 3372.46 545.583 3311.99 545.583 3246.55C545.583 3224.5 533.816 3204.12 514.72 3193.09C495.624 3182.06 472.09 3182.06 452.993 3193.09C433.896 3204.12 422.13 3224.5 422.13 3246.55C422.13 3311.99 387.22 3372.46 330.54 3405.19C273.859 3437.9 204.04 3437.9 147.36 3405.19C90.6788 3372.46 55.7695 3311.99 55.7695 3246.55L55.7695 1899.56C56.0388 1656.18 152.82 1422.88 324.898 1250.79Z" fill="#111827" stroke="white"/>
<path d="M851.219 1899.56C851.219 1833.94 816.215 1773.3 759.379 1740.48C702.544 1707.68 632.535 1707.68 575.699 1740.48C518.864 1773.3 483.859 1833.94 483.859 1899.56C483.859 1921.43 495.531 1941.64 514.473 1952.59C533.415 1963.52 556.758 1963.52 575.699 1952.59C594.641 1941.64 606.313 1921.43 606.313 1899.56C606.313 1877.69 617.984 1857.47 636.926 1846.53C655.868 1835.6 679.212 1835.6 698.153 1846.53C717.095 1857.48 728.766 1877.69 728.766 1899.56C728.766 1921.43 740.437 1941.64 759.379 1952.59C778.321 1963.52 801.665 1963.52 820.606 1952.59C839.548 1941.64 851.219 1921.43 851.219 1899.56Z" fill="#111827"/>
<path d="M1279.8 1715.88C1231.11 1715.94 1184.42 1735.3 1149.98 1769.74C1115.55 1804.17 1096.18 1850.86 1096.12 1899.56C1096.12 1921.43 1107.8 1941.64 1126.74 1952.59C1145.68 1963.52 1169.02 1963.52 1187.96 1952.59C1206.91 1941.64 1218.58 1921.43 1218.58 1899.56C1218.58 1877.69 1230.25 1857.47 1249.19 1846.53C1268.13 1835.6 1291.48 1835.6 1310.42 1846.53C1329.36 1857.48 1341.03 1877.69 1341.03 1899.56C1341.03 1921.43 1352.7 1941.64 1371.64 1952.59C1390.59 1963.52 1413.93 1963.52 1432.87 1952.59C1451.81 1941.64 1463.48 1921.43 1463.48 1899.56C1463.43 1850.86 1444.06 1804.17 1409.63 1769.74C1375.19 1735.3 1328.5 1715.94 1279.8 1715.88Z" fill="#111827"/>
<path d="M1096.13 2328.15C1079.88 2328.14 1064.31 2334.58 1052.82 2346.06C1041.34 2357.55 1034.89 2373.13 1034.9 2389.37C1034.9 2411.24 1023.23 2431.46 1004.29 2442.4C985.343 2453.34 962 2453.34 943.059 2442.4C924.117 2431.46 912.446 2411.24 912.446 2389.37C912.446 2367.51 900.774 2347.29 881.832 2336.35C862.89 2325.41 839.547 2325.41 820.606 2336.35C801.663 2347.29 789.992 2367.51 789.992 2389.37C789.992 2454.99 824.997 2515.64 881.832 2548.45C938.668 2581.25 1008.68 2581.25 1065.51 2548.45C1122.35 2515.64 1157.35 2454.99 1157.35 2389.37C1157.36 2373.13 1150.91 2357.56 1139.43 2346.06C1127.94 2334.58 1112.37 2328.14 1096.13 2328.15Z" fill="#111827"/>
</g>
<mask id="path-19-outside-1_1914_67" maskUnits="userSpaceOnUse" x="0" y="3750" width="4380" height="570" fill="black">
<rect fill="white" y="3750" width="4380" height="570"/>
<path d="M294.078 4263.75C259.924 4263.75 228.3 4258.12 199.206 4246.85C170.533 4235.17 145.234 4218.9 123.308 4198.03C101.804 4177.17 84.9374 4152.97 72.7095 4125.44C60.9032 4097.48 55 4067.23 55 4034.69C55 4001.73 61.114 3971.48 73.342 3943.94C85.9916 3915.98 103.49 3891.78 125.838 3871.34C148.186 3850.48 174.117 3834.42 203.633 3823.15C233.571 3811.47 265.405 3805.63 299.138 3805.63C339.195 3805.63 375.457 3812.72 407.925 3826.9C440.392 3840.67 466.745 3859.87 486.985 3884.48L411.087 3959.59C395.907 3941.64 379.252 3928.29 361.121 3919.53C342.99 3910.35 321.907 3905.76 297.873 3905.76C273.417 3905.76 251.491 3911.19 232.095 3922.03C213.12 3932.46 197.941 3947.28 186.556 3966.47C175.171 3985.66 169.479 4008.19 169.479 4034.06C169.479 4059.93 174.75 4082.67 185.291 4102.28C196.254 4121.89 211.012 4137.12 229.565 4147.97C248.539 4158.81 270.254 4164.24 294.71 4164.24C319.166 4164.24 339.827 4159.65 356.694 4150.47C373.981 4141.29 387.053 4127.94 395.907 4110.41C405.184 4092.89 409.822 4072.03 409.822 4047.83L486.352 4096.65L282.061 4091.64V4000.27H523.669V4017.16C523.669 4070.15 513.971 4115 494.574 4151.72C475.178 4188.44 448.193 4216.39 413.617 4235.59C379.463 4254.36 339.617 4263.75 294.078 4263.75Z"/>
<path d="M624.875 4256.86V3813.14H738.09V4256.86H624.875ZM899.372 4256.86V3813.14H1012.59V4256.86H899.372ZM689.389 4076.62V3982.74H940.484V4076.62H689.389Z"/>
<path d="M1348.08 4265C1313.51 4265 1281.67 4259.16 1252.58 4247.48C1223.49 4235.79 1197.98 4219.52 1176.05 4198.66C1154.55 4177.8 1137.68 4153.39 1125.45 4125.44C1113.22 4097.06 1107.11 4066.61 1107.11 4034.06C1107.11 4001.52 1113.01 3971.48 1124.82 3943.94C1137.05 3915.98 1153.91 3891.58 1175.42 3870.71C1196.92 3849.85 1222.22 3833.79 1251.31 3822.52C1280.41 3810.84 1312.24 3805 1346.82 3805C1381.39 3805 1413.23 3810.84 1442.32 3822.52C1471.42 3833.79 1496.72 3849.85 1518.22 3870.71C1539.73 3891.58 1556.38 3915.98 1568.19 3943.94C1580.42 3971.89 1586.53 4002.14 1586.53 4034.69C1586.53 4067.23 1580.42 4097.48 1568.19 4125.44C1556.38 4153.39 1539.73 4178.01 1518.22 4199.29C1496.72 4220.15 1471.42 4236.42 1442.32 4248.1C1413.65 4259.37 1382.24 4265 1348.08 4265ZM1346.82 4164.86C1372.12 4164.86 1394.04 4159.44 1412.6 4148.59C1431.15 4137.74 1445.49 4122.51 1455.61 4102.9C1465.73 4083.29 1470.79 4060.35 1470.79 4034.06C1470.79 4014.87 1467.83 3997.34 1461.93 3981.49C1456.45 3965.63 1448.23 3952.07 1437.26 3940.81C1426.3 3929.13 1413.23 3920.16 1398.05 3913.9C1382.87 3907.64 1365.79 3904.51 1346.82 3904.51C1321.52 3904.51 1299.59 3909.93 1281.04 3920.78C1262.49 3931.21 1248.15 3946.23 1238.03 3965.84C1227.91 3985.45 1222.85 4008.19 1222.85 4034.06C1222.85 4054.09 1225.59 4072.24 1231.08 4088.51C1236.98 4104.37 1245.41 4118.13 1256.37 4129.82C1267.34 4141.08 1280.41 4149.84 1295.59 4156.1C1310.77 4161.94 1327.84 4164.86 1346.82 4164.86Z"/>
<path d="M1821.12 4263.75C1783.59 4263.75 1750.91 4258.12 1723.08 4246.85C1695.67 4235.59 1670.59 4217.85 1647.82 4193.65L1719.29 4122.31C1734.89 4138.58 1751.54 4151.1 1769.25 4159.86C1786.96 4168.2 1806.99 4172.37 1829.34 4172.37C1848.31 4172.37 1862.86 4169.24 1872.98 4162.99C1883.52 4156.31 1888.79 4147.34 1888.79 4136.07C1888.79 4125.64 1885 4117.09 1877.41 4110.41C1869.82 4103.32 1859.7 4097.27 1847.05 4092.27C1834.82 4086.84 1821.12 4081.83 1805.94 4077.24C1791.18 4072.24 1776.21 4066.4 1761.03 4059.72C1746.27 4052.63 1732.57 4044.07 1719.92 4034.06C1707.69 4024.05 1697.78 4011.53 1690.19 3996.51C1682.6 3981.49 1678.81 3962.92 1678.81 3940.81C1678.81 3912.44 1685.55 3888.24 1699.05 3868.21C1712.96 3848.18 1732.15 3832.75 1756.6 3821.9C1781.06 3811.05 1809.52 3805.63 1841.99 3805.63C1874.46 3805.63 1904.39 3811.05 1931.8 3821.9C1959.21 3832.75 1981.77 3847.77 1999.48 3866.96L1927.37 3937.68C1913.88 3924.33 1900.18 3914.32 1886.26 3907.64C1872.35 3900.96 1857.17 3897.63 1840.72 3897.63C1825.12 3897.63 1812.89 3900.34 1804.04 3905.76C1795.18 3911.19 1790.76 3918.9 1790.76 3928.92C1790.76 3938.93 1794.55 3947.07 1802.14 3953.33C1809.73 3959.59 1819.64 3965.22 1831.87 3970.22C1844.52 3974.81 1858.22 3979.61 1872.98 3984.62C1888.16 3989.63 1903.13 3995.47 1917.89 4002.14C1932.64 4008.82 1946.14 4017.37 1958.36 4027.8C1971.01 4038.23 1981.13 4051.38 1988.72 4067.23C1996.31 4083.09 2000.11 4102.28 2000.11 4124.81C2000.11 4169.04 1984.3 4203.25 1952.67 4227.45C1921.47 4251.65 1877.62 4263.75 1821.12 4263.75Z"/>
<path d="M2198.26 4256.86V3816.27H2311.47V4256.86H2198.26ZM2061.01 3909.52V3813.14H2448.72V3909.52H2061.01Z"/>
<path d="M2624.18 4256.86V4160.48H2731.7C2757 4160.48 2778.93 4155.68 2797.48 4146.09C2816.45 4136.49 2831 4122.31 2841.12 4103.53C2851.24 4084.34 2856.3 4061.18 2856.3 4034.06C2856.3 4007.36 2851.03 3984.83 2840.49 3966.47C2830.37 3947.69 2816.03 3933.51 2797.48 3923.91C2778.93 3914.32 2757 3909.52 2731.7 3909.52H2619.12V3813.14H2732.33C2766.91 3813.14 2798.74 3818.56 2827.84 3829.41C2856.93 3839.84 2882.23 3854.86 2903.74 3874.47C2925.24 3894.08 2941.9 3917.44 2953.7 3944.56C2965.93 3971.68 2972.04 4001.73 2972.04 4034.69C2972.04 4068.07 2965.93 4098.32 2953.7 4125.44C2941.9 4152.56 2925.24 4175.92 2903.74 4195.53C2882.23 4215.14 2856.93 4230.37 2827.84 4241.22C2799.17 4251.65 2767.75 4256.86 2733.6 4256.86H2624.18ZM2547.65 4256.86V3813.14H2660.86V4256.86H2547.65Z"/>
<path d="M3066.24 4256.86V3813.14H3179.45V4256.86H3066.24ZM3156.05 4256.86V4162.36H3415.93V4256.86H3156.05ZM3156.05 4076.62V3984.62H3393.16V4076.62H3156.05ZM3156.05 3907.64V3813.14H3412.13V3907.64H3156.05Z"/>
<path d="M3639.55 4256.86L3470.68 3813.14H3591.48L3717.98 4171.75H3666.11L3794.51 3813.14H3912.78L3742.01 4256.86H3639.55Z"/>
<path d="M4125.01 4263.75C4087.48 4263.75 4054.8 4258.12 4026.97 4246.85C3999.57 4235.59 3974.48 4217.85 3951.71 4193.65L4023.18 4122.31C4038.78 4138.58 4055.43 4151.1 4073.14 4159.86C4090.85 4168.2 4110.88 4172.37 4133.23 4172.37C4152.2 4172.37 4166.75 4169.24 4176.87 4162.99C4187.41 4156.31 4192.68 4147.34 4192.68 4136.07C4192.68 4125.64 4188.89 4117.09 4181.3 4110.41C4173.71 4103.32 4163.59 4097.27 4150.94 4092.27C4138.71 4086.84 4125.01 4081.83 4109.83 4077.24C4095.07 4072.24 4080.1 4066.4 4064.92 4059.72C4050.16 4052.63 4036.46 4044.07 4023.81 4034.06C4011.58 4024.05 4001.67 4011.53 3994.08 3996.51C3986.49 3981.49 3982.7 3962.92 3982.7 3940.81C3982.7 3912.44 3989.45 3888.24 4002.94 3868.21C4016.85 3848.18 4036.04 3832.75 4060.49 3821.9C4084.95 3811.05 4113.41 3805.63 4145.88 3805.63C4178.35 3805.63 4208.28 3811.05 4235.69 3821.9C4263.1 3832.75 4285.66 3847.77 4303.37 3866.96L4231.26 3937.68C4217.77 3924.33 4204.07 3914.32 4190.15 3907.64C4176.24 3900.96 4161.06 3897.63 4144.61 3897.63C4129.01 3897.63 4116.79 3900.34 4107.93 3905.76C4099.08 3911.19 4094.65 3918.9 4094.65 3928.92C4094.65 3938.93 4098.44 3947.07 4106.03 3953.33C4113.62 3959.59 4123.53 3965.22 4135.76 3970.22C4148.41 3974.81 4162.11 3979.61 4176.87 3984.62C4192.05 3989.63 4207.02 3995.47 4221.78 4002.14C4236.54 4008.82 4250.03 4017.37 4262.26 4027.8C4274.91 4038.23 4285.03 4051.38 4292.62 4067.23C4300.21 4083.09 4304 4102.28 4304 4124.81C4304 4169.04 4288.19 4203.25 4256.56 4227.45C4225.36 4251.65 4181.51 4263.75 4125.01 4263.75Z"/>
</mask>
<path d="M294.078 4263.75C259.924 4263.75 228.3 4258.12 199.206 4246.85C170.533 4235.17 145.234 4218.9 123.308 4198.03C101.804 4177.17 84.9374 4152.97 72.7095 4125.44C60.9032 4097.48 55 4067.23 55 4034.69C55 4001.73 61.114 3971.48 73.342 3943.94C85.9916 3915.98 103.49 3891.78 125.838 3871.34C148.186 3850.48 174.117 3834.42 203.633 3823.15C233.571 3811.47 265.405 3805.63 299.138 3805.63C339.195 3805.63 375.457 3812.72 407.925 3826.9C440.392 3840.67 466.745 3859.87 486.985 3884.48L411.087 3959.59C395.907 3941.64 379.252 3928.29 361.121 3919.53C342.99 3910.35 321.907 3905.76 297.873 3905.76C273.417 3905.76 251.491 3911.19 232.095 3922.03C213.12 3932.46 197.941 3947.28 186.556 3966.47C175.171 3985.66 169.479 4008.19 169.479 4034.06C169.479 4059.93 174.75 4082.67 185.291 4102.28C196.254 4121.89 211.012 4137.12 229.565 4147.97C248.539 4158.81 270.254 4164.24 294.71 4164.24C319.166 4164.24 339.827 4159.65 356.694 4150.47C373.981 4141.29 387.053 4127.94 395.907 4110.41C405.184 4092.89 409.822 4072.03 409.822 4047.83L486.352 4096.65L282.061 4091.64V4000.27H523.669V4017.16C523.669 4070.15 513.971 4115 494.574 4151.72C475.178 4188.44 448.193 4216.39 413.617 4235.59C379.463 4254.36 339.617 4263.75 294.078 4263.75Z" fill="#111827"/>
<path d="M624.875 4256.86V3813.14H738.09V4256.86H624.875ZM899.372 4256.86V3813.14H1012.59V4256.86H899.372ZM689.389 4076.62V3982.74H940.484V4076.62H689.389Z" fill="#111827"/>
<path d="M1348.08 4265C1313.51 4265 1281.67 4259.16 1252.58 4247.48C1223.49 4235.79 1197.98 4219.52 1176.05 4198.66C1154.55 4177.8 1137.68 4153.39 1125.45 4125.44C1113.22 4097.06 1107.11 4066.61 1107.11 4034.06C1107.11 4001.52 1113.01 3971.48 1124.82 3943.94C1137.05 3915.98 1153.91 3891.58 1175.42 3870.71C1196.92 3849.85 1222.22 3833.79 1251.31 3822.52C1280.41 3810.84 1312.24 3805 1346.82 3805C1381.39 3805 1413.23 3810.84 1442.32 3822.52C1471.42 3833.79 1496.72 3849.85 1518.22 3870.71C1539.73 3891.58 1556.38 3915.98 1568.19 3943.94C1580.42 3971.89 1586.53 4002.14 1586.53 4034.69C1586.53 4067.23 1580.42 4097.48 1568.19 4125.44C1556.38 4153.39 1539.73 4178.01 1518.22 4199.29C1496.72 4220.15 1471.42 4236.42 1442.32 4248.1C1413.65 4259.37 1382.24 4265 1348.08 4265ZM1346.82 4164.86C1372.12 4164.86 1394.04 4159.44 1412.6 4148.59C1431.15 4137.74 1445.49 4122.51 1455.61 4102.9C1465.73 4083.29 1470.79 4060.35 1470.79 4034.06C1470.79 4014.87 1467.83 3997.34 1461.93 3981.49C1456.45 3965.63 1448.23 3952.07 1437.26 3940.81C1426.3 3929.13 1413.23 3920.16 1398.05 3913.9C1382.87 3907.64 1365.79 3904.51 1346.82 3904.51C1321.52 3904.51 1299.59 3909.93 1281.04 3920.78C1262.49 3931.21 1248.15 3946.23 1238.03 3965.84C1227.91 3985.45 1222.85 4008.19 1222.85 4034.06C1222.85 4054.09 1225.59 4072.24 1231.08 4088.51C1236.98 4104.37 1245.41 4118.13 1256.37 4129.82C1267.34 4141.08 1280.41 4149.84 1295.59 4156.1C1310.77 4161.94 1327.84 4164.86 1346.82 4164.86Z" fill="#111827"/>
<path d="M1821.12 4263.75C1783.59 4263.75 1750.91 4258.12 1723.08 4246.85C1695.67 4235.59 1670.59 4217.85 1647.82 4193.65L1719.29 4122.31C1734.89 4138.58 1751.54 4151.1 1769.25 4159.86C1786.96 4168.2 1806.99 4172.37 1829.34 4172.37C1848.31 4172.37 1862.86 4169.24 1872.98 4162.99C1883.52 4156.31 1888.79 4147.34 1888.79 4136.07C1888.79 4125.64 1885 4117.09 1877.41 4110.41C1869.82 4103.32 1859.7 4097.27 1847.05 4092.27C1834.82 4086.84 1821.12 4081.83 1805.94 4077.24C1791.18 4072.24 1776.21 4066.4 1761.03 4059.72C1746.27 4052.63 1732.57 4044.07 1719.92 4034.06C1707.69 4024.05 1697.78 4011.53 1690.19 3996.51C1682.6 3981.49 1678.81 3962.92 1678.81 3940.81C1678.81 3912.44 1685.55 3888.24 1699.05 3868.21C1712.96 3848.18 1732.15 3832.75 1756.6 3821.9C1781.06 3811.05 1809.52 3805.63 1841.99 3805.63C1874.46 3805.63 1904.39 3811.05 1931.8 3821.9C1959.21 3832.75 1981.77 3847.77 1999.48 3866.96L1927.37 3937.68C1913.88 3924.33 1900.18 3914.32 1886.26 3907.64C1872.35 3900.96 1857.17 3897.63 1840.72 3897.63C1825.12 3897.63 1812.89 3900.34 1804.04 3905.76C1795.18 3911.19 1790.76 3918.9 1790.76 3928.92C1790.76 3938.93 1794.55 3947.07 1802.14 3953.33C1809.73 3959.59 1819.64 3965.22 1831.87 3970.22C1844.52 3974.81 1858.22 3979.61 1872.98 3984.62C1888.16 3989.63 1903.13 3995.47 1917.89 4002.14C1932.64 4008.82 1946.14 4017.37 1958.36 4027.8C1971.01 4038.23 1981.13 4051.38 1988.72 4067.23C1996.31 4083.09 2000.11 4102.28 2000.11 4124.81C2000.11 4169.04 1984.3 4203.25 1952.67 4227.45C1921.47 4251.65 1877.62 4263.75 1821.12 4263.75Z" fill="#111827"/>
<path d="M2198.26 4256.86V3816.27H2311.47V4256.86H2198.26ZM2061.01 3909.52V3813.14H2448.72V3909.52H2061.01Z" fill="#111827"/>
<path d="M2624.18 4256.86V4160.48H2731.7C2757 4160.48 2778.93 4155.68 2797.48 4146.09C2816.45 4136.49 2831 4122.31 2841.12 4103.53C2851.24 4084.34 2856.3 4061.18 2856.3 4034.06C2856.3 4007.36 2851.03 3984.83 2840.49 3966.47C2830.37 3947.69 2816.03 3933.51 2797.48 3923.91C2778.93 3914.32 2757 3909.52 2731.7 3909.52H2619.12V3813.14H2732.33C2766.91 3813.14 2798.74 3818.56 2827.84 3829.41C2856.93 3839.84 2882.23 3854.86 2903.74 3874.47C2925.24 3894.08 2941.9 3917.44 2953.7 3944.56C2965.93 3971.68 2972.04 4001.73 2972.04 4034.69C2972.04 4068.07 2965.93 4098.32 2953.7 4125.44C2941.9 4152.56 2925.24 4175.92 2903.74 4195.53C2882.23 4215.14 2856.93 4230.37 2827.84 4241.22C2799.17 4251.65 2767.75 4256.86 2733.6 4256.86H2624.18ZM2547.65 4256.86V3813.14H2660.86V4256.86H2547.65Z" fill="#111827"/>
<path d="M3066.24 4256.86V3813.14H3179.45V4256.86H3066.24ZM3156.05 4256.86V4162.36H3415.93V4256.86H3156.05ZM3156.05 4076.62V3984.62H3393.16V4076.62H3156.05ZM3156.05 3907.64V3813.14H3412.13V3907.64H3156.05Z" fill="#111827"/>
<path d="M3639.55 4256.86L3470.68 3813.14H3591.48L3717.98 4171.75H3666.11L3794.51 3813.14H3912.78L3742.01 4256.86H3639.55Z" fill="#111827"/>
<path d="M4125.01 4263.75C4087.48 4263.75 4054.8 4258.12 4026.97 4246.85C3999.57 4235.59 3974.48 4217.85 3951.71 4193.65L4023.18 4122.31C4038.78 4138.58 4055.43 4151.1 4073.14 4159.86C4090.85 4168.2 4110.88 4172.37 4133.23 4172.37C4152.2 4172.37 4166.75 4169.24 4176.87 4162.99C4187.41 4156.31 4192.68 4147.34 4192.68 4136.07C4192.68 4125.64 4188.89 4117.09 4181.3 4110.41C4173.71 4103.32 4163.59 4097.27 4150.94 4092.27C4138.71 4086.84 4125.01 4081.83 4109.83 4077.24C4095.07 4072.24 4080.1 4066.4 4064.92 4059.72C4050.16 4052.63 4036.46 4044.07 4023.81 4034.06C4011.58 4024.05 4001.67 4011.53 3994.08 3996.51C3986.49 3981.49 3982.7 3962.92 3982.7 3940.81C3982.7 3912.44 3989.45 3888.24 4002.94 3868.21C4016.85 3848.18 4036.04 3832.75 4060.49 3821.9C4084.95 3811.05 4113.41 3805.63 4145.88 3805.63C4178.35 3805.63 4208.28 3811.05 4235.69 3821.9C4263.1 3832.75 4285.66 3847.77 4303.37 3866.96L4231.26 3937.68C4217.77 3924.33 4204.07 3914.32 4190.15 3907.64C4176.24 3900.96 4161.06 3897.63 4144.61 3897.63C4129.01 3897.63 4116.79 3900.34 4107.93 3905.76C4099.08 3911.19 4094.65 3918.9 4094.65 3928.92C4094.65 3938.93 4098.44 3947.07 4106.03 3953.33C4113.62 3959.59 4123.53 3965.22 4135.76 3970.22C4148.41 3974.81 4162.11 3979.61 4176.87 3984.62C4192.05 3989.63 4207.02 3995.47 4221.78 4002.14C4236.54 4008.82 4250.03 4017.37 4262.26 4027.8C4274.91 4038.23 4285.03 4051.38 4292.62 4067.23C4300.21 4083.09 4304 4102.28 4304 4124.81C4304 4169.04 4288.19 4203.25 4256.56 4227.45C4225.36 4251.65 4181.51 4263.75 4125.01 4263.75Z" fill="#111827"/>
<path d="M294.078 4263.75C259.924 4263.75 228.3 4258.12 199.206 4246.85C170.533 4235.17 145.234 4218.9 123.308 4198.03C101.804 4177.17 84.9374 4152.97 72.7095 4125.44C60.9032 4097.48 55 4067.23 55 4034.69C55 4001.73 61.114 3971.48 73.342 3943.94C85.9916 3915.98 103.49 3891.78 125.838 3871.34C148.186 3850.48 174.117 3834.42 203.633 3823.15C233.571 3811.47 265.405 3805.63 299.138 3805.63C339.195 3805.63 375.457 3812.72 407.925 3826.9C440.392 3840.67 466.745 3859.87 486.985 3884.48L411.087 3959.59C395.907 3941.64 379.252 3928.29 361.121 3919.53C342.99 3910.35 321.907 3905.76 297.873 3905.76C273.417 3905.76 251.491 3911.19 232.095 3922.03C213.12 3932.46 197.941 3947.28 186.556 3966.47C175.171 3985.66 169.479 4008.19 169.479 4034.06C169.479 4059.93 174.75 4082.67 185.291 4102.28C196.254 4121.89 211.012 4137.12 229.565 4147.97C248.539 4158.81 270.254 4164.24 294.71 4164.24C319.166 4164.24 339.827 4159.65 356.694 4150.47C373.981 4141.29 387.053 4127.94 395.907 4110.41C405.184 4092.89 409.822 4072.03 409.822 4047.83L486.352 4096.65L282.061 4091.64V4000.27H523.669V4017.16C523.669 4070.15 513.971 4115 494.574 4151.72C475.178 4188.44 448.193 4216.39 413.617 4235.59C379.463 4254.36 339.617 4263.75 294.078 4263.75Z" stroke="white" stroke-width="110" mask="url(#path-19-outside-1_1914_67)"/>
<path d="M624.875 4256.86V3813.14H738.09V4256.86H624.875ZM899.372 4256.86V3813.14H1012.59V4256.86H899.372ZM689.389 4076.62V3982.74H940.484V4076.62H689.389Z" stroke="white" stroke-width="110" mask="url(#path-19-outside-1_1914_67)"/>
<path d="M1348.08 4265C1313.51 4265 1281.67 4259.16 1252.58 4247.48C1223.49 4235.79 1197.98 4219.52 1176.05 4198.66C1154.55 4177.8 1137.68 4153.39 1125.45 4125.44C1113.22 4097.06 1107.11 4066.61 1107.11 4034.06C1107.11 4001.52 1113.01 3971.48 1124.82 3943.94C1137.05 3915.98 1153.91 3891.58 1175.42 3870.71C1196.92 3849.85 1222.22 3833.79 1251.31 3822.52C1280.41 3810.84 1312.24 3805 1346.82 3805C1381.39 3805 1413.23 3810.84 1442.32 3822.52C1471.42 3833.79 1496.72 3849.85 1518.22 3870.71C1539.73 3891.58 1556.38 3915.98 1568.19 3943.94C1580.42 3971.89 1586.53 4002.14 1586.53 4034.69C1586.53 4067.23 1580.42 4097.48 1568.19 4125.44C1556.38 4153.39 1539.73 4178.01 1518.22 4199.29C1496.72 4220.15 1471.42 4236.42 1442.32 4248.1C1413.65 4259.37 1382.24 4265 1348.08 4265ZM1346.82 4164.86C1372.12 4164.86 1394.04 4159.44 1412.6 4148.59C1431.15 4137.74 1445.49 4122.51 1455.61 4102.9C1465.73 4083.29 1470.79 4060.35 1470.79 4034.06C1470.79 4014.87 1467.83 3997.34 1461.93 3981.49C1456.45 3965.63 1448.23 3952.07 1437.26 3940.81C1426.3 3929.13 1413.23 3920.16 1398.05 3913.9C1382.87 3907.64 1365.79 3904.51 1346.82 3904.51C1321.52 3904.51 1299.59 3909.93 1281.04 3920.78C1262.49 3931.21 1248.15 3946.23 1238.03 3965.84C1227.91 3985.45 1222.85 4008.19 1222.85 4034.06C1222.85 4054.09 1225.59 4072.24 1231.08 4088.51C1236.98 4104.37 1245.41 4118.13 1256.37 4129.82C1267.34 4141.08 1280.41 4149.84 1295.59 4156.1C1310.77 4161.94 1327.84 4164.86 1346.82 4164.86Z" stroke="white" stroke-width="110" mask="url(#path-19-outside-1_1914_67)"/>
<path d="M1821.12 4263.75C1783.59 4263.75 1750.91 4258.12 1723.08 4246.85C1695.67 4235.59 1670.59 4217.85 1647.82 4193.65L1719.29 4122.31C1734.89 4138.58 1751.54 4151.1 1769.25 4159.86C1786.96 4168.2 1806.99 4172.37 1829.34 4172.37C1848.31 4172.37 1862.86 4169.24 1872.98 4162.99C1883.52 4156.31 1888.79 4147.34 1888.79 4136.07C1888.79 4125.64 1885 4117.09 1877.41 4110.41C1869.82 4103.32 1859.7 4097.27 1847.05 4092.27C1834.82 4086.84 1821.12 4081.83 1805.94 4077.24C1791.18 4072.24 1776.21 4066.4 1761.03 4059.72C1746.27 4052.63 1732.57 4044.07 1719.92 4034.06C1707.69 4024.05 1697.78 4011.53 1690.19 3996.51C1682.6 3981.49 1678.81 3962.92 1678.81 3940.81C1678.81 3912.44 1685.55 3888.24 1699.05 3868.21C1712.96 3848.18 1732.15 3832.75 1756.6 3821.9C1781.06 3811.05 1809.52 3805.63 1841.99 3805.63C1874.46 3805.63 1904.39 3811.05 1931.8 3821.9C1959.21 3832.75 1981.77 3847.77 1999.48 3866.96L1927.37 3937.68C1913.88 3924.33 1900.18 3914.32 1886.26 3907.64C1872.35 3900.96 1857.17 3897.63 1840.72 3897.63C1825.12 3897.63 1812.89 3900.34 1804.04 3905.76C1795.18 3911.19 1790.76 3918.9 1790.76 3928.92C1790.76 3938.93 1794.55 3947.07 1802.14 3953.33C1809.73 3959.59 1819.64 3965.22 1831.87 3970.22C1844.52 3974.81 1858.22 3979.61 1872.98 3984.62C1888.16 3989.63 1903.13 3995.47 1917.89 4002.14C1932.64 4008.82 1946.14 4017.37 1958.36 4027.8C1971.01 4038.23 1981.13 4051.38 1988.72 4067.23C1996.31 4083.09 2000.11 4102.28 2000.11 4124.81C2000.11 4169.04 1984.3 4203.25 1952.67 4227.45C1921.47 4251.65 1877.62 4263.75 1821.12 4263.75Z" stroke="white" stroke-width="110" mask="url(#path-19-outside-1_1914_67)"/>
<path d="M2198.26 4256.86V3816.27H2311.47V4256.86H2198.26ZM2061.01 3909.52V3813.14H2448.72V3909.52H2061.01Z" stroke="white" stroke-width="110" mask="url(#path-19-outside-1_1914_67)"/>
<path d="M2624.18 4256.86V4160.48H2731.7C2757 4160.48 2778.93 4155.68 2797.48 4146.09C2816.45 4136.49 2831 4122.31 2841.12 4103.53C2851.24 4084.34 2856.3 4061.18 2856.3 4034.06C2856.3 4007.36 2851.03 3984.83 2840.49 3966.47C2830.37 3947.69 2816.03 3933.51 2797.48 3923.91C2778.93 3914.32 2757 3909.52 2731.7 3909.52H2619.12V3813.14H2732.33C2766.91 3813.14 2798.74 3818.56 2827.84 3829.41C2856.93 3839.84 2882.23 3854.86 2903.74 3874.47C2925.24 3894.08 2941.9 3917.44 2953.7 3944.56C2965.93 3971.68 2972.04 4001.73 2972.04 4034.69C2972.04 4068.07 2965.93 4098.32 2953.7 4125.44C2941.9 4152.56 2925.24 4175.92 2903.74 4195.53C2882.23 4215.14 2856.93 4230.37 2827.84 4241.22C2799.17 4251.65 2767.75 4256.86 2733.6 4256.86H2624.18ZM2547.65 4256.86V3813.14H2660.86V4256.86H2547.65Z" stroke="white" stroke-width="110" mask="url(#path-19-outside-1_1914_67)"/>
<path d="M3066.24 4256.86V3813.14H3179.45V4256.86H3066.24ZM3156.05 4256.86V4162.36H3415.93V4256.86H3156.05ZM3156.05 4076.62V3984.62H3393.16V4076.62H3156.05ZM3156.05 3907.64V3813.14H3412.13V3907.64H3156.05Z" stroke="white" stroke-width="110" mask="url(#path-19-outside-1_1914_67)"/>
<path d="M3639.55 4256.86L3470.68 3813.14H3591.48L3717.98 4171.75H3666.11L3794.51 3813.14H3912.78L3742.01 4256.86H3639.55Z" stroke="white" stroke-width="110" mask="url(#path-19-outside-1_1914_67)"/>
<path d="M4125.01 4263.75C4087.48 4263.75 4054.8 4258.12 4026.97 4246.85C3999.57 4235.59 3974.48 4217.85 3951.71 4193.65L4023.18 4122.31C4038.78 4138.58 4055.43 4151.1 4073.14 4159.86C4090.85 4168.2 4110.88 4172.37 4133.23 4172.37C4152.2 4172.37 4166.75 4169.24 4176.87 4162.99C4187.41 4156.31 4192.68 4147.34 4192.68 4136.07C4192.68 4125.64 4188.89 4117.09 4181.3 4110.41C4173.71 4103.32 4163.59 4097.27 4150.94 4092.27C4138.71 4086.84 4125.01 4081.83 4109.83 4077.24C4095.07 4072.24 4080.1 4066.4 4064.92 4059.72C4050.16 4052.63 4036.46 4044.07 4023.81 4034.06C4011.58 4024.05 4001.67 4011.53 3994.08 3996.51C3986.49 3981.49 3982.7 3962.92 3982.7 3940.81C3982.7 3912.44 3989.45 3888.24 4002.94 3868.21C4016.85 3848.18 4036.04 3832.75 4060.49 3821.9C4084.95 3811.05 4113.41 3805.63 4145.88 3805.63C4178.35 3805.63 4208.28 3811.05 4235.69 3821.9C4263.1 3832.75 4285.66 3847.77 4303.37 3866.96L4231.26 3937.68C4217.77 3924.33 4204.07 3914.32 4190.15 3907.64C4176.24 3900.96 4161.06 3897.63 4144.61 3897.63C4129.01 3897.63 4116.79 3900.34 4107.93 3905.76C4099.08 3911.19 4094.65 3918.9 4094.65 3928.92C4094.65 3938.93 4098.44 3947.07 4106.03 3953.33C4113.62 3959.59 4123.53 3965.22 4135.76 3970.22C4148.41 3974.81 4162.11 3979.61 4176.87 3984.62C4192.05 3989.63 4207.02 3995.47 4221.78 4002.14C4236.54 4008.82 4250.03 4017.37 4262.26 4027.8C4274.91 4038.23 4285.03 4051.38 4292.62 4067.23C4300.21 4083.09 4304 4102.28 4304 4124.81C4304 4169.04 4288.19 4203.25 4256.56 4227.45C4225.36 4251.65 4181.51 4263.75 4125.01 4263.75Z" stroke="white" stroke-width="110" mask="url(#path-19-outside-1_1914_67)"/>
</g>
<defs>
<clipPath id="clip0_1914_67">
<rect width="4380" height="4320" fill="white"/>
</clipPath>
<clipPath id="clip1_1914_67">
<rect width="1938" height="2550" fill="white" transform="translate(1220)"/>
</clipPath>
<clipPath id="clip2_1914_67">
<rect width="1938" height="2550" fill="white" transform="translate(2435 931)"/>
</clipPath>
<clipPath id="clip3_1914_67">
<rect width="1938" height="2550" fill="white" transform="translate(5 931)"/>
</clipPath>
</defs>
</svg>
