<svg width="5328" height="5328" viewBox="0 0 5328 5328" fill="none" xmlns="http://www.w3.org/2000/svg">
<rect width="5328" height="5328" rx="2664" fill="#FBBF24"/>
<g clip-path="url(#clip0_1919_76)">
<path d="M2663.56 1406.46L2663.54 1406.46L2663.52 1406.46C2473.47 1406.67 2291.27 1482.26 2156.88 1616.63L2156.88 1616.63C2022.5 1751.02 1946.92 1933.21 1946.71 2123.27L1946.71 2123.28V2123.29V3146.79C1946.71 3203.43 1976.92 3255.78 2025.99 3284.11L2025.99 3284.11C2075.05 3312.43 2135.49 3312.43 2184.55 3284.11L2184.55 3284.11C2233.62 3255.78 2263.83 3203.43 2263.83 3146.79C2263.83 3136.96 2269.08 3127.87 2277.6 3122.94C2286.11 3118.03 2296.61 3118.03 2305.12 3122.94C2313.64 3127.87 2318.89 3136.96 2318.89 3146.79C2318.89 3203.43 2349.1 3255.78 2398.17 3284.11L2398.17 3284.11C2447.23 3312.43 2507.67 3312.43 2556.73 3284.11L2556.73 3284.11C2605.8 3255.78 2636.01 3203.43 2636.01 3146.79C2636.01 3136.96 2641.26 3127.87 2649.78 3122.94C2658.29 3118.03 2668.79 3118.03 2677.3 3122.94C2685.82 3127.87 2691.07 3136.96 2691.07 3146.79C2691.07 3203.43 2721.28 3255.78 2770.35 3284.11L2770.35 3284.11C2819.41 3312.43 2879.85 3312.43 2928.91 3284.11L2928.91 3284.11C2977.97 3255.78 3008.19 3203.43 3008.19 3146.79C3008.19 3136.96 3013.44 3127.87 3021.96 3122.94C3030.47 3118.03 3040.96 3118.03 3049.48 3122.94C3058 3127.87 3063.25 3136.96 3063.25 3146.79C3063.25 3203.43 3093.46 3255.78 3142.53 3284.11L3142.53 3284.11C3191.59 3312.43 3252.03 3312.43 3301.09 3284.11L3301.09 3284.11C3350.15 3255.78 3380.37 3203.43 3380.37 3146.79V2123.29V2123.28V2123.27C3380.16 1933.23 3304.58 1751.03 3170.2 1616.63L3170.2 1616.63C3035.81 1482.25 2853.62 1406.67 2663.56 1406.46Z" fill="white" stroke="white" stroke-width="37.992"/>
<path d="M3268.33 3217.85L3268.33 2123.29C3268.33 1962.88 3204.61 1809.06 3091.19 1695.64C2977.77 1582.22 2823.95 1518.5 2663.54 1518.5" stroke="#CBD5E1" stroke-width="82.9058" stroke-linecap="round"/>
<path d="M2128.72 3187.41L2128.53 3187.08L2128.72 3187.41C2143.23 3179.03 2152.17 3163.54 2152.17 3146.79C2152.17 3097.06 2178.7 3051.11 2221.77 3026.24C2264.83 3001.39 2317.89 3001.39 2360.95 3026.24C2404.02 3051.11 2430.55 3097.06 2430.55 3146.79C2430.55 3163.54 2439.49 3179.02 2454 3187.41L2454.16 3187.13L2454 3187.41C2468.51 3195.78 2486.39 3195.78 2500.9 3187.41L2500.71 3187.08L2500.9 3187.41C2515.41 3179.03 2524.35 3163.54 2524.35 3146.79C2524.35 3097.06 2550.88 3051.11 2593.95 3026.24C2637.01 3001.39 2690.06 3001.39 2733.13 3026.24C2776.2 3051.11 2802.73 3097.06 2802.73 3146.79C2802.73 3163.54 2811.67 3179.02 2826.18 3187.41L2826.36 3187.09L2826.18 3187.41C2840.69 3195.78 2858.57 3195.78 2873.08 3187.41L2872.89 3187.08L2873.08 3187.41C2887.59 3179.03 2896.53 3163.54 2896.53 3146.79C2896.53 3097.06 2923.06 3051.11 2966.13 3026.24C3009.19 3001.39 3062.24 3001.39 3105.31 3026.24C3148.38 3051.11 3174.91 3097.06 3174.91 3146.79C3174.91 3163.54 3183.85 3179.02 3198.36 3187.41C3212.87 3195.78 3230.75 3195.78 3245.26 3187.41C3259.77 3179.03 3268.71 3163.54 3268.71 3146.79L3268.71 2123.29C3268.71 1962.78 3204.95 1808.86 3091.46 1695.37C2977.97 1581.88 2824.05 1518.12 2663.54 1518.12C2503.03 1518.12 2349.11 1581.88 2235.62 1695.37C2122.13 1808.86 2058.37 1962.79 2058.37 2123.29V3146.79C2058.37 3163.54 2067.31 3179.02 2081.82 3187.41L2081.98 3187.12L2081.82 3187.41C2096.33 3195.78 2114.21 3195.78 2128.72 3187.41ZM2170.58 1630.33C2301.35 1499.58 2478.63 1426.04 2663.54 1425.84C2848.47 1426.04 3025.74 1499.58 3156.5 1630.33C3287.25 1761.1 3360.79 1938.38 3361 2123.29V3146.79C3361 3196.51 3334.47 3242.46 3291.4 3267.33C3248.33 3292.19 3195.28 3292.19 3152.21 3267.33C3109.15 3242.46 3082.62 3196.51 3082.62 3146.79C3082.62 3130.03 3073.68 3114.55 3059.17 3106.17C3044.66 3097.79 3026.78 3097.79 3012.27 3106.17C2997.76 3114.55 2988.82 3130.03 2988.82 3146.79C2988.82 3196.51 2962.29 3242.46 2919.22 3267.33C2876.15 3292.19 2823.1 3292.19 2780.04 3267.33C2736.97 3242.46 2710.44 3196.51 2710.44 3146.79C2710.44 3130.03 2701.5 3114.55 2686.99 3106.17C2672.48 3097.79 2654.6 3097.79 2640.09 3106.17C2625.58 3114.55 2616.64 3130.03 2616.64 3146.79C2616.64 3196.51 2590.11 3242.46 2547.04 3267.33C2503.98 3292.19 2450.92 3292.19 2407.86 3267.33C2364.79 3242.46 2338.26 3196.51 2338.26 3146.79C2338.26 3130.03 2329.32 3114.55 2314.81 3106.17C2300.3 3097.79 2282.42 3097.79 2267.91 3106.17C2253.4 3114.55 2244.46 3130.03 2244.46 3146.79C2244.46 3196.51 2217.93 3242.46 2174.86 3267.33C2131.8 3292.19 2078.74 3292.19 2035.68 3267.33C1992.61 3242.46 1966.08 3196.51 1966.08 3146.79L1966.08 2123.29C1966.29 1938.37 2039.83 1761.09 2170.58 1630.33Z" fill="#111827" stroke="white" stroke-width="0.759839"/>
<path d="M2570.5 2123.29C2570.5 2073.43 2543.9 2027.35 2500.71 2002.42C2457.53 1977.5 2404.33 1977.5 2361.15 2002.42C2317.96 2027.35 2291.36 2073.43 2291.36 2123.29C2291.36 2139.91 2300.23 2155.27 2314.62 2163.59C2329.02 2171.89 2346.75 2171.89 2361.15 2163.59C2375.54 2155.27 2384.41 2139.91 2384.41 2123.29C2384.41 2106.68 2393.28 2091.32 2407.67 2083C2422.06 2074.69 2439.8 2074.69 2454.19 2083C2468.58 2091.32 2477.45 2106.68 2477.45 2123.29C2477.45 2139.91 2486.32 2155.27 2500.71 2163.59C2515.11 2171.89 2532.84 2171.89 2547.24 2163.59C2561.63 2155.27 2570.5 2139.91 2570.5 2123.29Z" fill="#111827"/>
<path d="M2896.15 1983.73C2859.15 1983.77 2823.67 1998.48 2797.51 2024.65C2771.34 2050.81 2756.63 2086.29 2756.59 2123.29C2756.59 2139.91 2765.45 2155.27 2779.85 2163.59C2794.24 2171.89 2811.98 2171.89 2826.37 2163.59C2840.76 2155.27 2849.63 2139.91 2849.63 2123.29C2849.63 2106.68 2858.5 2091.32 2872.89 2083C2887.28 2074.69 2905.02 2074.69 2919.41 2083C2933.81 2091.32 2942.68 2106.68 2942.68 2123.29C2942.68 2139.91 2951.54 2155.27 2965.94 2163.59C2980.33 2171.89 2998.07 2171.89 3012.46 2163.59C3026.85 2155.27 3035.72 2139.91 3035.72 2123.29C3035.68 2086.29 3020.96 2050.81 2994.8 2024.65C2968.63 1998.48 2933.15 1983.77 2896.15 1983.73Z" fill="#111827"/>
<path d="M2756.59 2448.95C2744.25 2448.94 2732.41 2453.84 2723.68 2462.57C2714.96 2471.3 2710.06 2483.13 2710.07 2495.47C2710.07 2512.09 2701.2 2527.45 2686.81 2535.77C2672.41 2544.07 2654.67 2544.07 2640.28 2535.77C2625.89 2527.45 2617.02 2512.09 2617.02 2495.47C2617.02 2478.86 2608.15 2463.5 2593.76 2455.18C2579.37 2446.87 2561.63 2446.87 2547.24 2455.18C2532.84 2463.5 2523.98 2478.86 2523.98 2495.47C2523.98 2545.33 2550.57 2591.41 2593.76 2616.34C2636.95 2641.27 2690.14 2641.27 2733.33 2616.34C2776.51 2591.41 2803.11 2545.33 2803.11 2495.47C2803.12 2483.13 2798.22 2471.3 2789.5 2462.57C2780.77 2453.84 2768.93 2448.94 2756.59 2448.95Z" fill="#111827"/>
</g>
<g clip-path="url(#clip1_1919_76)">
<path d="M3586.88 2113.53L3586.86 2113.53L3586.83 2113.53C3396.79 2113.74 3214.59 2189.32 3080.19 2323.7L3080.19 2323.7C2945.81 2458.09 2870.23 2640.28 2870.02 2830.34L2870.02 2830.35V2830.36V3853.85C2870.02 3910.5 2900.24 3962.85 2949.31 3991.18L2949.31 3991.18C2998.37 4019.49 3058.8 4019.49 3107.87 3991.18L3107.87 3991.18C3156.93 3962.85 3187.15 3910.5 3187.15 3853.85C3187.15 3844.02 3192.4 3834.93 3200.92 3830.01C3209.43 3825.1 3219.92 3825.1 3228.43 3830.01C3236.96 3834.93 3242.2 3844.03 3242.2 3853.85C3242.2 3910.5 3272.42 3962.85 3321.48 3991.18L3321.49 3991.18C3370.55 4019.49 3430.98 4019.49 3480.05 3991.18L3480.05 3991.18C3529.11 3962.85 3559.33 3910.5 3559.33 3853.85C3559.33 3844.02 3564.58 3834.93 3573.1 3830.01C3581.61 3825.1 3592.1 3825.1 3600.61 3830.01C3609.14 3834.93 3614.38 3844.03 3614.38 3853.85C3614.38 3910.5 3644.6 3962.85 3693.66 3991.18L3693.67 3991.18C3742.73 4019.49 3803.16 4019.49 3852.23 3991.18L3852.23 3991.18C3901.29 3962.85 3931.51 3910.5 3931.51 3853.85C3931.51 3844.02 3936.76 3834.93 3945.28 3830.01C3953.79 3825.1 3964.28 3825.1 3972.79 3830.01C3981.32 3834.93 3986.56 3844.03 3986.56 3853.85C3986.56 3910.5 4016.78 3962.85 4065.84 3991.18L4065.85 3991.18C4114.91 4019.49 4175.34 4019.49 4224.4 3991.18L4224.41 3991.18C4273.47 3962.85 4303.69 3910.5 4303.69 3853.85V2830.36V2830.35V2830.34C4303.48 2640.29 4227.89 2458.09 4093.52 2323.7L4093.52 2323.7C3959.13 2189.32 3776.94 2113.74 3586.88 2113.53Z" fill="white" stroke="white" stroke-width="37.992"/>
<path d="M4191.65 3924.92L4191.65 2830.36C4191.65 2669.95 4127.93 2516.13 4014.51 2402.71C3901.09 2289.29 3747.26 2225.57 3586.86 2225.57" stroke="#CBD5E1" stroke-width="82.9058" stroke-linecap="round"/>
<path d="M3052.04 3894.47L3051.85 3894.15L3052.04 3894.47C3066.55 3886.09 3075.49 3870.61 3075.49 3853.85C3075.49 3804.13 3102.01 3758.18 3145.08 3733.31C3188.15 3708.45 3241.2 3708.45 3284.27 3733.31C3327.34 3758.18 3353.86 3804.13 3353.86 3853.85C3353.86 3870.61 3362.8 3886.09 3377.31 3894.47L3377.48 3894.2L3377.32 3894.47C3391.82 3902.85 3409.71 3902.85 3424.22 3894.47L3424.03 3894.15L3424.22 3894.47C3438.73 3886.09 3447.67 3870.61 3447.67 3853.85C3447.67 3804.13 3474.19 3758.18 3517.26 3733.31C3560.33 3708.45 3613.38 3708.45 3656.45 3733.31C3699.52 3758.18 3726.04 3804.13 3726.04 3853.85C3726.04 3870.61 3734.98 3886.09 3749.49 3894.47L3749.68 3894.15L3749.49 3894.47C3764 3902.85 3781.89 3902.85 3796.4 3894.47L3796.21 3894.15L3796.4 3894.47C3810.91 3886.09 3819.85 3870.61 3819.85 3853.85C3819.85 3804.13 3846.37 3758.18 3889.44 3733.31C3932.51 3708.45 3985.56 3708.45 4028.63 3733.31C4071.7 3758.18 4098.22 3804.13 4098.22 3853.85C4098.22 3870.61 4107.16 3886.09 4121.67 3894.47C4136.18 3902.85 4154.07 3902.85 4168.58 3894.47C4183.09 3886.09 4192.03 3870.61 4192.03 3853.85L4192.03 2830.36C4192.03 2669.85 4128.27 2515.93 4014.78 2402.44C3901.29 2288.95 3747.37 2225.19 3586.86 2225.19C3426.35 2225.19 3272.43 2288.95 3158.94 2402.44C3045.45 2515.93 2981.68 2669.86 2981.68 2830.36V3853.85C2981.68 3870.61 2990.63 3886.09 3005.14 3894.47L3005.3 3894.19L3005.14 3894.47C3019.65 3902.85 3037.53 3902.85 3052.04 3894.47ZM3093.89 2337.4C3224.66 2206.65 3401.94 2133.11 3586.86 2132.9C3771.78 2133.11 3949.06 2206.65 4079.82 2337.4C4210.56 2468.17 4284.11 2645.45 4284.31 2830.36V3853.85C4284.31 3903.58 4257.79 3949.53 4214.72 3974.4C4171.65 3999.25 4118.6 3999.25 4075.53 3974.4C4032.46 3949.53 4005.94 3903.58 4005.94 3853.85C4005.94 3837.1 3997 3821.62 3982.49 3813.23C3967.98 3804.86 3950.09 3804.86 3935.58 3813.23C3921.07 3821.61 3912.13 3837.1 3912.13 3853.85C3912.13 3903.58 3885.61 3949.53 3842.54 3974.4C3799.47 3999.25 3746.42 3999.25 3703.35 3974.4C3660.28 3949.53 3633.76 3903.58 3633.76 3853.85C3633.76 3837.1 3624.82 3821.62 3610.31 3813.23C3595.8 3804.86 3577.92 3804.86 3563.4 3813.23C3548.89 3821.61 3539.95 3837.1 3539.95 3853.85C3539.95 3903.58 3513.43 3949.53 3470.36 3974.4C3427.29 3999.25 3374.24 3999.25 3331.17 3974.4C3288.1 3949.53 3261.58 3903.58 3261.58 3853.85C3261.58 3837.1 3252.64 3821.62 3238.13 3813.23C3223.62 3804.86 3205.74 3804.86 3191.23 3813.23C3176.71 3821.61 3167.77 3837.1 3167.77 3853.85C3167.77 3903.58 3141.25 3949.53 3098.18 3974.4C3055.11 3999.25 3002.06 3999.25 2958.99 3974.4C2915.92 3949.53 2889.4 3903.58 2889.4 3853.85L2889.4 2830.36C2889.6 2645.43 2963.14 2468.16 3093.89 2337.4Z" fill="#111827" stroke="white" stroke-width="0.759839"/>
<path d="M3493.82 2830.36C3493.82 2780.5 3467.22 2734.42 3424.03 2709.49C3380.85 2684.56 3327.65 2684.56 3284.47 2709.49C3241.28 2734.42 3214.68 2780.5 3214.68 2830.36C3214.68 2846.98 3223.55 2862.34 3237.94 2870.65C3252.34 2878.96 3270.08 2878.96 3284.47 2870.65C3298.86 2862.34 3307.73 2846.98 3307.73 2830.36C3307.73 2813.74 3316.6 2798.38 3330.99 2790.07C3345.38 2781.76 3363.12 2781.76 3377.51 2790.07C3391.9 2798.38 3400.77 2813.74 3400.77 2830.36C3400.77 2846.98 3409.64 2862.34 3424.03 2870.65C3438.43 2878.96 3456.16 2878.96 3470.56 2870.65C3484.95 2862.34 3493.82 2846.98 3493.82 2830.36Z" fill="#111827"/>
<path d="M3819.47 2690.79C3782.47 2690.84 3746.99 2705.55 3720.83 2731.72C3694.66 2757.88 3679.95 2793.36 3679.9 2830.36C3679.9 2846.98 3688.77 2862.34 3703.16 2870.65C3717.56 2878.96 3735.29 2878.96 3749.69 2870.65C3764.08 2862.34 3772.95 2846.98 3772.95 2830.36C3772.95 2813.74 3781.82 2798.38 3796.21 2790.07C3810.6 2781.76 3828.34 2781.76 3842.73 2790.07C3857.12 2798.38 3865.99 2813.74 3865.99 2830.36C3865.99 2846.98 3874.86 2862.34 3889.25 2870.65C3903.65 2878.96 3921.38 2878.96 3935.78 2870.65C3950.17 2862.34 3959.04 2846.98 3959.04 2830.36C3958.99 2793.36 3944.28 2757.88 3918.11 2731.72C3891.95 2705.55 3856.47 2690.84 3819.47 2690.79Z" fill="#111827"/>
<path d="M3679.91 3156.02C3667.56 3156.01 3655.73 3160.91 3647 3169.63C3638.27 3178.36 3633.38 3190.2 3633.38 3202.54C3633.38 3219.16 3624.51 3234.52 3610.12 3242.83C3595.73 3251.14 3577.99 3251.14 3563.6 3242.83C3549.21 3234.52 3540.34 3219.16 3540.34 3202.54C3540.34 3185.92 3531.47 3170.56 3517.08 3162.25C3502.68 3153.94 3484.95 3153.94 3470.55 3162.25C3456.16 3170.56 3447.29 3185.92 3447.29 3202.54C3447.29 3252.4 3473.89 3298.48 3517.08 3323.41C3560.26 3348.34 3613.46 3348.34 3656.64 3323.41C3699.83 3298.48 3726.43 3252.4 3726.43 3202.54C3726.43 3190.2 3721.54 3178.36 3712.81 3169.63C3704.08 3160.91 3692.25 3156.01 3679.91 3156.02Z" fill="#111827"/>
</g>
<g clip-path="url(#clip2_1919_76)">
<path d="M1740.24 2113.53L1740.22 2113.53L1740.2 2113.53C1550.16 2113.74 1367.96 2189.32 1233.56 2323.7L1233.56 2323.7C1099.18 2458.09 1023.6 2640.28 1023.39 2830.34L1023.39 2830.35V2830.36V3853.85C1023.39 3910.5 1053.61 3962.85 1102.67 3991.18L1102.67 3991.18C1151.74 4019.49 1212.17 4019.49 1261.23 3991.18L1261.24 3991.18C1310.3 3962.85 1340.52 3910.5 1340.52 3853.85C1340.52 3844.02 1345.76 3834.93 1354.28 3830.01C1362.8 3825.1 1373.29 3825.1 1381.8 3830.01C1390.32 3834.93 1395.57 3844.03 1395.57 3853.85C1395.57 3910.5 1425.79 3962.85 1474.85 3991.18L1474.85 3991.18C1523.92 4019.49 1584.35 4019.49 1633.41 3991.18L1633.41 3991.18C1682.48 3962.85 1712.7 3910.5 1712.7 3853.85C1712.7 3844.02 1717.94 3834.93 1726.46 3830.01C1734.98 3825.1 1745.47 3825.1 1753.98 3830.01C1762.5 3834.93 1767.75 3844.03 1767.75 3853.85C1767.75 3910.5 1797.97 3962.85 1847.03 3991.18L1847.03 3991.18C1896.1 4019.49 1956.53 4019.49 2005.59 3991.18L2005.59 3991.18C2054.66 3962.85 2084.88 3910.5 2084.88 3853.85C2084.88 3844.02 2090.12 3834.93 2098.64 3830.01C2107.16 3825.1 2117.65 3825.1 2126.16 3830.01C2134.68 3834.93 2139.93 3844.03 2139.93 3853.85C2139.93 3910.5 2170.15 3962.85 2219.21 3991.18L2219.21 3991.18C2268.27 4019.49 2328.71 4019.49 2377.77 3991.18L2377.77 3991.18C2426.84 3962.85 2457.06 3910.5 2457.06 3853.85V2830.36V2830.35V2830.34C2456.85 2640.29 2381.26 2458.09 2246.89 2323.7L2246.89 2323.7C2112.5 2189.32 1930.3 2113.74 1740.24 2113.53Z" fill="white" stroke="white" stroke-width="37.992"/>
<path d="M2345.01 3924.92L2345.02 2830.36C2345.02 2669.95 2281.3 2516.13 2167.88 2402.71C2054.45 2289.29 1900.63 2225.57 1740.22 2225.57" stroke="#CBD5E1" stroke-width="82.9058" stroke-linecap="round"/>
<path d="M1205.41 3894.47L1205.22 3894.15L1205.41 3894.47C1219.92 3886.09 1228.86 3870.61 1228.86 3853.85C1228.86 3804.13 1255.38 3758.18 1298.45 3733.31C1341.52 3708.45 1394.57 3708.45 1437.64 3733.31C1480.71 3758.18 1507.23 3804.13 1507.23 3853.85C1507.23 3870.6 1516.17 3886.09 1530.68 3894.47L1530.84 3894.2L1530.68 3894.47C1545.19 3902.85 1563.07 3902.85 1577.58 3894.47L1577.39 3894.15L1577.58 3894.47C1592.09 3886.09 1601.04 3870.61 1601.04 3853.85C1601.04 3804.13 1627.56 3758.18 1670.63 3733.31C1713.7 3708.45 1766.75 3708.45 1809.82 3733.31C1852.88 3758.18 1879.41 3804.13 1879.41 3853.85C1879.41 3870.6 1888.35 3886.09 1902.86 3894.47L1903.05 3894.15L1902.86 3894.47C1917.37 3902.85 1935.25 3902.85 1949.76 3894.47L1949.57 3894.15L1949.76 3894.47C1964.27 3886.09 1973.22 3870.61 1973.22 3853.85C1973.22 3804.13 1999.74 3758.18 2042.81 3733.31C2085.88 3708.45 2138.93 3708.45 2182 3733.31C2225.06 3758.18 2251.59 3804.13 2251.59 3853.85C2251.59 3870.6 2260.53 3886.09 2275.04 3894.47C2289.55 3902.85 2307.43 3902.85 2321.94 3894.47C2336.45 3886.09 2345.39 3870.61 2345.39 3853.85L2345.4 2830.36C2345.4 2669.85 2281.64 2515.93 2168.15 2402.44C2054.65 2288.95 1900.73 2225.19 1740.22 2225.19C1579.71 2225.19 1425.79 2288.95 1312.3 2402.44C1198.81 2515.93 1135.05 2669.86 1135.05 2830.36V3853.85C1135.05 3870.6 1143.99 3886.09 1158.5 3894.47L1158.67 3894.19L1158.5 3894.47C1173.01 3902.85 1190.89 3902.85 1205.41 3894.47ZM1247.26 2337.4C1378.03 2206.65 1555.31 2133.11 1740.22 2132.9C1925.15 2133.11 2102.43 2206.65 2233.19 2337.4C2363.93 2468.17 2437.48 2645.45 2437.68 2830.36V3853.85C2437.68 3903.58 2411.15 3949.53 2368.09 3974.4C2325.02 3999.25 2271.97 3999.25 2228.9 3974.4C2185.83 3949.53 2159.3 3903.58 2159.3 3853.85C2159.3 3837.1 2150.36 3821.62 2135.85 3813.23C2121.34 3804.86 2103.46 3804.86 2088.95 3813.23C2074.44 3821.61 2065.5 3837.1 2065.5 3853.85C2065.5 3903.58 2038.97 3949.53 1995.91 3974.4C1952.84 3999.25 1899.79 3999.25 1856.72 3974.4C1813.65 3949.53 1787.13 3903.58 1787.13 3853.85C1787.13 3837.1 1778.18 3821.62 1763.67 3813.23C1749.16 3804.86 1731.28 3804.86 1716.77 3813.23C1702.26 3821.61 1693.32 3837.1 1693.32 3853.85C1693.32 3903.58 1666.8 3949.53 1623.73 3974.4C1580.66 3999.25 1527.61 3999.25 1484.54 3974.4C1441.47 3949.53 1414.95 3903.58 1414.95 3853.85C1414.95 3837.1 1406.01 3821.62 1391.49 3813.23C1376.99 3804.86 1359.1 3804.86 1344.59 3813.23C1330.08 3821.61 1321.14 3837.1 1321.14 3853.85C1321.14 3903.58 1294.62 3949.53 1251.55 3974.4C1208.48 3999.25 1155.43 3999.25 1112.36 3974.4C1069.29 3949.53 1042.77 3903.58 1042.77 3853.85L1042.77 2830.36C1042.97 2645.43 1116.51 2468.16 1247.26 2337.4Z" fill="#111827" stroke="white" stroke-width="0.759839"/>
<path d="M1647.18 2830.36C1647.18 2780.5 1620.58 2734.42 1577.4 2709.49C1534.21 2684.56 1481.02 2684.56 1437.83 2709.49C1394.64 2734.42 1368.05 2780.5 1368.05 2830.36C1368.05 2846.98 1376.92 2862.34 1391.31 2870.65C1405.7 2878.96 1423.44 2878.96 1437.83 2870.65C1452.22 2862.34 1461.09 2846.98 1461.09 2830.36C1461.09 2813.74 1469.96 2798.38 1484.35 2790.07C1498.75 2781.76 1516.48 2781.76 1530.88 2790.07C1545.27 2798.38 1554.14 2813.74 1554.14 2830.36C1554.14 2846.98 1563 2862.34 1577.4 2870.65C1591.79 2878.96 1609.53 2878.96 1623.92 2870.65C1638.31 2862.34 1647.18 2846.98 1647.18 2830.36Z" fill="#111827"/>
<path d="M1972.84 2690.79C1935.84 2690.84 1900.36 2705.55 1874.19 2731.72C1848.03 2757.88 1833.31 2793.36 1833.27 2830.36C1833.27 2846.98 1842.14 2862.34 1856.53 2870.65C1870.92 2878.96 1888.66 2878.96 1903.05 2870.65C1917.45 2862.34 1926.31 2846.98 1926.31 2830.36C1926.31 2813.74 1935.18 2798.38 1949.58 2790.07C1963.97 2781.76 1981.71 2781.76 1996.1 2790.07C2010.49 2798.38 2019.36 2813.74 2019.36 2830.36C2019.36 2846.98 2028.23 2862.34 2042.62 2870.65C2057.01 2878.96 2074.75 2878.96 2089.14 2870.65C2103.54 2862.34 2112.4 2846.98 2112.4 2830.36C2112.36 2793.36 2097.65 2757.88 2071.48 2731.72C2045.32 2705.55 2009.84 2690.84 1972.84 2690.79Z" fill="#111827"/>
<path d="M1833.27 3156.02C1820.93 3156.01 1809.1 3160.91 1800.36 3169.63C1791.64 3178.36 1786.74 3190.2 1786.75 3202.54C1786.75 3219.16 1777.88 3234.52 1763.49 3242.83C1749.1 3251.14 1731.36 3251.14 1716.97 3242.83C1702.57 3234.52 1693.7 3219.16 1693.7 3202.54C1693.7 3185.92 1684.84 3170.56 1670.44 3162.25C1656.05 3153.94 1638.31 3153.94 1623.92 3162.25C1609.53 3170.56 1600.66 3185.92 1600.66 3202.54C1600.66 3252.4 1627.26 3298.48 1670.44 3323.41C1713.63 3348.34 1766.83 3348.34 1810.01 3323.41C1853.2 3298.48 1879.79 3252.4 1879.79 3202.54C1879.8 3190.2 1874.9 3178.36 1866.18 3169.63C1857.45 3160.91 1845.62 3156.01 1833.27 3156.02Z" fill="#111827"/>
</g>
<defs>
<clipPath id="clip0_1919_76">
<rect width="1472.57" height="1937.59" fill="white" transform="translate(1927.39 1387)"/>
</clipPath>
<clipPath id="clip1_1919_76">
<rect width="1472.57" height="1937.59" fill="white" transform="translate(2850.59 2094.41)"/>
</clipPath>
<clipPath id="clip2_1919_76">
<rect width="1472.57" height="1937.59" fill="white" transform="translate(1004.19 2094.41)"/>
</clipPath>
</defs>
</svg>
